<?xml version="1.0" encoding="utf-8"?>
<!-- Generator: Adobe Illustrator 26.0.3, SVG Export Plug-In . SVG Version: 6.00 Build 0)  -->
<svg version="1.1" id="Capa_1" xmlns="http://www.w3.org/2000/svg" xmlns:xlink="http://www.w3.org/1999/xlink" x="0px" y="0px"
	 viewBox="0 0 1920 1080" style="enable-background:new 0 0 1920 1080;" xml:space="preserve">
<style type="text/css">
	.st0{fill:#0070F3;}
	.st1{fill:#181612;}
	.st2{fill:#FFFFFF;}
	.st3{fill:#EA5056;}
	.st4{clip-path:url(#SVGID_00000158718724131868343960000005143886563636572062_);}
	.st5{fill:#8AC9F9;stroke:#000000;stroke-width:2;stroke-miterlimit:10;}
	.st6{fill:#FFFFFF;stroke:#000000;stroke-width:2;stroke-miterlimit:10;}
	.st7{fill:#5D8EF9;stroke:#000000;stroke-width:2;stroke-miterlimit:10;}
</style>
<g>
	<g>
		<path class="st0" d="M1574.5,629.25l-0.94,10.18c-0.12,1.26,0.81,2.28,2.07,2.28h5.66c1,0,1.82,0.65,2.03,1.61
			c0.39,1.79,0.95,3.5,1.66,5.13c0.39,0.89,0.13,1.97-0.65,2.68l-4.38,4.01c-0.97,0.89-1.1,2.33-0.3,3.22l6.54,7.2
			c0.81,0.89,2.25,0.89,3.22,0l4.38-4.01c0.77-0.71,1.87-0.87,2.72-0.4c1.55,0.86,3.2,1.57,4.94,2.13c0.93,0.3,1.5,1.18,1.41,2.17
			l-0.52,5.66c-0.12,1.26,0.81,2.28,2.07,2.28h10.18c1.26,0,2.37-1.02,2.48-2.28l0.52-5.66c0.09-1,0.83-1.88,1.81-2.17
			c1.84-0.55,3.62-1.27,5.33-2.13c0.93-0.47,2-0.31,2.64,0.4l3.64,4.01c0.81,0.89,2.25,0.89,3.22,0l7.86-7.2
			c0.97-0.89,1.1-2.33,0.3-3.22l-3.64-4.01c-0.64-0.71-0.7-1.79-0.15-2.68c1.01-1.63,1.88-3.35,2.6-5.13
			c0.38-0.96,1.32-1.61,2.32-1.61h5.66c1.26,0,2.37-1.02,2.48-2.28l0.94-10.18c0.12-1.26-0.81-2.28-2.07-2.28h-5.66
			c-1,0-1.82-0.65-2.03-1.61c-0.39-1.79-0.95-3.5-1.65-5.13c-0.39-0.89-0.13-1.97,0.65-2.68l4.38-4.01c0.97-0.89,1.1-2.33,0.3-3.22
			l-6.54-7.2c-0.81-0.89-2.25-0.89-3.22,0l-4.38,4.01c-0.77,0.71-1.87,0.87-2.72,0.4c-1.55-0.86-3.2-1.57-4.94-2.13
			c-0.93-0.3-1.5-1.17-1.41-2.17l0.52-5.66c0.12-1.26-0.81-2.28-2.07-2.28h-10.18c-1.26,0-2.37,1.02-2.48,2.28l-0.52,5.66
			c-0.09,1-0.83,1.88-1.81,2.17c-1.84,0.55-3.62,1.27-5.33,2.13c-0.93,0.47-2,0.31-2.64-0.4l-3.64-4.01c-0.81-0.89-2.25-0.89-3.22,0
			l-7.86,7.2c-0.97,0.89-1.1,2.33-0.3,3.22l3.64,4.01c0.64,0.71,0.7,1.79,0.15,2.68c-1.01,1.63-1.88,3.35-2.6,5.13
			c-0.38,0.96-1.32,1.61-2.32,1.61h-5.66C1575.72,626.97,1574.61,627.99,1574.5,629.25z M1594.24,634.34
			c0.96-10.4,10.17-18.84,20.57-18.84c10.4,0,18.06,8.43,17.1,18.84c-0.96,10.4-10.17,18.84-20.57,18.84
			C1600.94,653.18,1593.28,644.74,1594.24,634.34z"/>
		<path class="st1" d="M1614.57,674.2h-10.18c-0.84,0-1.6-0.33-2.14-0.93c-0.55-0.6-0.81-1.39-0.73-2.23l0.52-5.66
			c0.06-0.62-0.28-1.15-0.85-1.33c-1.77-0.56-3.48-1.3-5.08-2.19c-0.54-0.3-1.27-0.18-1.78,0.29l-4.38,4.01
			c-0.65,0.6-1.51,0.91-2.36,0.88c-0.78-0.04-1.49-0.37-2-0.93l-6.54-7.2c-1.1-1.22-0.95-3.17,0.35-4.36l4.38-4.01
			c0.51-0.47,0.7-1.19,0.45-1.76c-0.73-1.69-1.31-3.47-1.7-5.28c-0.13-0.58-0.62-0.97-1.24-0.97h-5.66c-0.84,0-1.6-0.33-2.14-0.93
			c-0.55-0.6-0.81-1.39-0.73-2.23l0.94-10.18c0.15-1.66,1.63-3.01,3.29-3.01h5.66c0.67,0,1.31-0.45,1.57-1.1
			c0.73-1.81,1.62-3.58,2.66-5.26c0.36-0.58,0.34-1.27-0.06-1.71l-3.64-4.01c-1.1-1.22-0.95-3.17,0.35-4.36l7.86-7.2
			c0.65-0.6,1.51-0.92,2.36-0.88c0.78,0.04,1.49,0.37,2,0.93l3.64,4.01c0.4,0.44,1.07,0.53,1.68,0.22c1.76-0.89,3.6-1.62,5.46-2.18
			c0.67-0.2,1.18-0.81,1.24-1.48l0.52-5.66c0.15-1.66,1.63-3.01,3.29-3.01h10.18c0.84,0,1.6,0.33,2.14,0.93
			c0.55,0.6,0.81,1.39,0.73,2.23l-0.52,5.66c-0.06,0.62,0.28,1.15,0.85,1.33c1.77,0.56,3.48,1.3,5.08,2.19
			c0.54,0.3,1.27,0.18,1.78-0.29l4.38-4.01c0.65-0.6,1.52-0.92,2.36-0.88c0.78,0.04,1.49,0.37,2,0.93l6.54,7.2
			c1.1,1.22,0.95,3.17-0.35,4.36l-4.38,4.01c-0.51,0.47-0.7,1.19-0.45,1.76c0.73,1.69,1.31,3.46,1.7,5.28
			c0.13,0.58,0.62,0.97,1.24,0.97h5.66c0.84,0,1.6,0.33,2.14,0.93c0.55,0.6,0.81,1.39,0.73,2.23l-0.94,10.18
			c-0.15,1.66-1.63,3.01-3.29,3.01h-5.66c-0.67,0-1.31,0.45-1.57,1.1c-0.73,1.81-1.62,3.58-2.66,5.26
			c-0.36,0.58-0.34,1.27,0.06,1.71l3.64,4.01c1.1,1.22,0.95,3.17-0.35,4.36l-7.86,7.2c-0.65,0.6-1.51,0.92-2.36,0.88
			c-0.78-0.04-1.49-0.37-2-0.93l-3.64-4.01c-0.4-0.44-1.07-0.53-1.68-0.22c-1.76,0.89-3.6,1.62-5.46,2.18
			c-0.67,0.2-1.18,0.81-1.24,1.47l-0.52,5.66C1617.71,672.85,1616.23,674.2,1614.57,674.2z M1595.45,660.07
			c0.5,0,0.99,0.12,1.44,0.37c1.51,0.84,3.12,1.53,4.79,2.06c1.28,0.41,2.09,1.65,1.97,3.02l-0.52,5.66
			c-0.04,0.38,0.08,0.73,0.31,0.99c0.23,0.26,0.57,0.4,0.95,0.4h10.18c0.83,0,1.6-0.71,1.68-1.54l0.52-5.66
			c0.12-1.33,1.08-2.48,2.38-2.87c1.77-0.53,3.52-1.23,5.2-2.08c1.26-0.64,2.71-0.4,3.6,0.58l3.64,4.01
			c0.22,0.24,0.53,0.38,0.88,0.4c0.42,0.02,0.86-0.15,1.19-0.45l7.86-7.2c0.64-0.59,0.75-1.52,0.24-2.08l-3.64-4.01
			c-0.89-0.98-0.99-2.45-0.24-3.65c0.99-1.6,1.84-3.28,2.54-5.01c0.51-1.27,1.74-2.12,3.07-2.12h5.66c0.83,0,1.6-0.71,1.68-1.54
			l0.94-10.18c0.04-0.38-0.08-0.73-0.31-0.99c-0.23-0.26-0.57-0.4-0.95-0.4h-5.66c-1.37,0-2.53-0.92-2.82-2.25
			c-0.37-1.72-0.91-3.39-1.61-4.98c-0.53-1.21-0.19-2.66,0.84-3.6l4.38-4.01c0.64-0.59,0.75-1.52,0.24-2.08l-6.54-7.2
			c-0.22-0.24-0.53-0.38-0.88-0.4c-0.42-0.02-0.86,0.15-1.19,0.45l-4.38,4.01c-1.03,0.94-2.5,1.15-3.65,0.51
			c-1.51-0.84-3.13-1.53-4.79-2.06c-1.28-0.41-2.09-1.65-1.97-3.02l0.52-5.66c0.04-0.38-0.08-0.73-0.31-0.99
			c-0.23-0.26-0.57-0.4-0.95-0.4h-10.18c-0.83,0-1.6,0.71-1.68,1.54l-0.52,5.66c-0.12,1.33-1.08,2.48-2.38,2.87
			c-1.77,0.53-3.52,1.23-5.2,2.08c-1.26,0.64-2.71,0.4-3.6-0.58l-3.64-4.01c-0.22-0.24-0.53-0.38-0.88-0.4
			c-0.42-0.02-0.86,0.15-1.19,0.45l-7.86,7.2c-0.64,0.59-0.75,1.52-0.24,2.08l3.64,4.01c0.89,0.98,0.99,2.44,0.24,3.65
			c-0.99,1.6-1.84,3.29-2.54,5.01c-0.51,1.27-1.74,2.12-3.07,2.12h-5.66c-0.83,0-1.6,0.71-1.68,1.54l0,0l-0.94,10.18
			c-0.04,0.38,0.08,0.73,0.31,0.99c0.23,0.26,0.57,0.4,0.95,0.4h5.66c1.37,0,2.53,0.92,2.82,2.25c0.37,1.72,0.91,3.39,1.61,4.98
			c0.53,1.21,0.19,2.66-0.84,3.6l-4.38,4.01c-0.64,0.59-0.75,1.52-0.24,2.08l6.54,7.2c0.22,0.24,0.53,0.38,0.88,0.4
			c0.42,0.02,0.86-0.15,1.19-0.45l4.38-4.01C1593.87,660.37,1594.66,660.07,1595.45,660.07z M1574.5,629.25L1574.5,629.25
			L1574.5,629.25z M1611.34,653.99c-5.25,0-10-2.04-13.38-5.75c-3.4-3.73-5.01-8.69-4.52-13.97c0.99-10.79,10.58-19.57,21.38-19.57
			c5.25,0,10,2.04,13.38,5.75c3.4,3.73,5.01,8.69,4.52,13.97C1631.72,645.21,1622.13,653.99,1611.34,653.99z M1614.81,616.31
			c-9.98,0-18.85,8.12-19.77,18.1l0,0c-0.44,4.82,1.02,9.34,4.11,12.73c3.07,3.37,7.4,5.23,12.19,5.23c9.98,0,18.85-8.12,19.77-18.1
			c0.44-4.82-1.02-9.34-4.11-12.73C1623.93,618.17,1619.6,616.31,1614.81,616.31z M1594.24,634.34L1594.24,634.34L1594.24,634.34z"
			/>
	</g>
	<g>
		
			<ellipse transform="matrix(0.7232 -0.6906 0.6906 0.7232 8.6741 1289.5718)" class="st0" cx="1613.11" cy="633.96" rx="7.59" ry="6.92"/>
		<path class="st1" d="M1612.44,642.02c-2.16,0-4.12-0.84-5.52-2.38c-1.41-1.54-2.07-3.58-1.87-5.76c0.41-4.4,4.32-7.98,8.72-7.98
			c2.16,0,4.12,0.84,5.52,2.38c1.4,1.54,2.07,3.58,1.87,5.75C1620.76,638.44,1616.84,642.02,1612.44,642.02z M1613.78,627.52
			c-3.59,0-6.78,2.92-7.11,6.51c-0.16,1.71,0.36,3.32,1.45,4.52c1.09,1.19,2.62,1.85,4.32,1.85c3.59,0,6.78-2.92,7.11-6.51
			c0.16-1.71-0.36-3.32-1.45-4.52C1617.01,628.18,1615.48,627.52,1613.78,627.52z"/>
	</g>
</g>
<g>
	<g>
		<path class="st2" d="M1482.24,425.6l-1.48,16.11c-0.18,1.99,1.28,3.6,3.27,3.6h8.96c1.58,0,2.88,1.03,3.21,2.55
			c0.62,2.83,1.5,5.55,2.62,8.12c0.61,1.4,0.2,3.12-1.02,4.24l-6.92,6.34c-1.54,1.41-1.75,3.69-0.47,5.09l10.34,11.39
			c1.28,1.41,3.56,1.41,5.09,0l6.92-6.34c1.22-1.12,2.96-1.37,4.3-0.63c2.45,1.36,5.07,2.49,7.81,3.37
			c1.47,0.47,2.37,1.86,2.23,3.44l-0.83,8.96c-0.18,1.99,1.28,3.6,3.27,3.6h16.11c1.99,0,3.75-1.61,3.93-3.6l0.83-8.96
			c0.15-1.58,1.31-2.97,2.86-3.44c2.91-0.88,5.73-2.01,8.43-3.37c1.47-0.74,3.16-0.49,4.18,0.63l5.76,6.34
			c1.28,1.41,3.56,1.41,5.09,0l12.44-11.39c1.54-1.41,1.75-3.69,0.47-5.09l-5.76-6.34c-1.02-1.12-1.11-2.84-0.24-4.24
			c1.6-2.58,2.98-5.29,4.12-8.12c0.61-1.51,2.09-2.55,3.68-2.55h8.96c1.99,0,3.75-1.61,3.93-3.6l1.48-16.11
			c0.18-1.99-1.28-3.6-3.27-3.6h-8.96c-1.58,0-2.88-1.03-3.21-2.55c-0.62-2.83-1.5-5.55-2.62-8.12c-0.61-1.4-0.2-3.12,1.02-4.24
			l6.92-6.34c1.54-1.41,1.75-3.69,0.47-5.09l-10.34-11.39c-1.28-1.41-3.56-1.41-5.09,0l-6.92,6.34c-1.22,1.12-2.96,1.37-4.3,0.63
			c-2.45-1.36-5.06-2.49-7.81-3.37c-1.47-0.47-2.37-1.86-2.23-3.44l0.83-8.96c0.18-1.99-1.28-3.6-3.27-3.6h-16.11
			c-1.99,0-3.75,1.61-3.93,3.6l-0.83,8.96c-0.15,1.58-1.31,2.97-2.86,3.44c-2.91,0.88-5.73,2.01-8.43,3.37
			c-1.47,0.74-3.16,0.49-4.18-0.63l-5.76-6.34c-1.28-1.41-3.56-1.41-5.09,0l-12.44,11.39c-1.54,1.41-1.75,3.69-0.47,5.09l5.76,6.34
			c1.02,1.12,1.11,2.84,0.24,4.24c-1.6,2.58-2.98,5.29-4.12,8.12c-0.61,1.51-2.09,2.55-3.68,2.55h-8.96
			C1484.19,422,1482.43,423.61,1482.24,425.6z M1513.48,433.65c1.52-16.46,16.09-29.81,32.55-29.81c16.46,0,28.58,13.34,27.06,29.81
			c-1.52,16.46-16.09,29.81-32.55,29.81C1524.08,463.46,1511.96,450.12,1513.48,433.65z"/>
		<path class="st1" d="M1545.65,496.25h-16.11c-1.19,0-2.27-0.47-3.04-1.31c-0.78-0.85-1.14-1.98-1.03-3.17l0.83-8.96
			c0.11-1.2-0.56-2.24-1.67-2.6c-2.77-0.88-5.45-2.04-7.96-3.43c-1.04-0.58-2.39-0.37-3.36,0.52l-6.92,6.34
			c-0.94,0.86-2.18,1.32-3.39,1.26c-1.11-0.05-2.12-0.52-2.84-1.31l-10.34-11.39c-1.57-1.73-1.34-4.53,0.52-6.23l6.92-6.34
			c0.97-0.89,1.3-2.22,0.83-3.32c-1.15-2.64-2.05-5.43-2.67-8.27c-0.25-1.14-1.22-1.91-2.42-1.91h-8.96c-1.19,0-2.27-0.47-3.04-1.31
			c-0.78-0.85-1.14-1.98-1.03-3.17l1.48-16.11c0.22-2.39,2.35-4.33,4.74-4.33h8.96c1.24,0,2.44-0.84,2.93-2.04
			c1.14-2.84,2.55-5.62,4.18-8.25c0.68-1.1,0.62-2.42-0.15-3.27l-5.76-6.34c-1.57-1.73-1.34-4.53,0.52-6.23l12.44-11.39
			c0.94-0.86,2.17-1.32,3.39-1.26c1.11,0.05,2.12,0.52,2.84,1.31l5.76,6.34c0.77,0.85,2.07,1.03,3.22,0.45
			c2.76-1.39,5.64-2.54,8.56-3.42c1.23-0.37,2.18-1.5,2.29-2.74l0.83-8.96c0.22-2.39,2.34-4.33,4.74-4.33h16.11
			c1.19,0,2.27,0.47,3.04,1.31c0.78,0.85,1.14,1.98,1.03,3.17l-0.83,8.96c-0.11,1.2,0.56,2.24,1.67,2.6
			c2.77,0.88,5.45,2.04,7.96,3.43c1.04,0.58,2.39,0.37,3.36-0.52l6.92-6.34c0.94-0.86,2.17-1.32,3.39-1.26
			c1.11,0.05,2.12,0.52,2.84,1.31l10.34,11.39c1.57,1.73,1.34,4.53-0.52,6.23l-6.92,6.34c-0.97,0.89-1.3,2.22-0.83,3.32
			c1.15,2.64,2.05,5.43,2.67,8.27c0.25,1.14,1.22,1.91,2.42,1.91h8.96c1.19,0,2.27,0.47,3.04,1.31c0.78,0.85,1.14,1.98,1.03,3.17
			l-1.48,16.11c-0.22,2.39-2.35,4.33-4.74,4.33h-8.96c-1.24,0-2.44,0.84-2.93,2.04c-1.14,2.84-2.55,5.62-4.18,8.25
			c-0.68,1.1-0.62,2.42,0.15,3.27l5.76,6.34c1.57,1.73,1.34,4.53-0.52,6.23l-12.44,11.39c-0.94,0.86-2.18,1.32-3.39,1.26
			c-1.11-0.05-2.12-0.52-2.84-1.31l-5.76-6.34c-0.77-0.85-2.07-1.03-3.22-0.45c-2.76,1.39-5.64,2.54-8.56,3.42
			c-1.23,0.37-2.18,1.5-2.29,2.74l-0.83,8.96C1550.17,494.3,1548.04,496.25,1545.65,496.25z M1515.39,474.84
			c0.71,0,1.42,0.17,2.05,0.53c2.42,1.34,5,2.45,7.67,3.3c1.82,0.58,2.97,2.34,2.79,4.29l-0.83,8.96c-0.07,0.74,0.15,1.42,0.62,1.93
			c0.46,0.51,1.12,0.79,1.85,0.79h16.11c1.58,0,2.98-1.29,3.13-2.87l0.83-8.96c0.18-1.91,1.56-3.58,3.43-4.14
			c2.83-0.85,5.63-1.97,8.3-3.32c1.81-0.91,3.88-0.58,5.14,0.81l5.76,6.34c0.43,0.48,1.04,0.76,1.72,0.79
			c0.79,0.04,1.6-0.27,2.23-0.84l12.44-11.39c1.21-1.1,1.39-2.88,0.42-3.95l-5.76-6.34c-1.26-1.39-1.4-3.48-0.33-5.21
			c1.58-2.55,2.95-5.24,4.05-8c0.73-1.83,2.51-3.05,4.43-3.05h8.96c1.58,0,2.98-1.29,3.13-2.87l1.48-16.11
			c0.07-0.74-0.15-1.42-0.62-1.93c-0.46-0.51-1.12-0.79-1.85-0.79h-8.96c-1.95,0-3.59-1.31-4-3.18c-0.6-2.75-1.46-5.43-2.57-7.97
			c-0.75-1.73-0.26-3.8,1.22-5.16l6.92-6.34c1.21-1.1,1.39-2.88,0.42-3.95l-10.34-11.39c-0.43-0.48-1.04-0.76-1.72-0.79
			c-0.79-0.04-1.6,0.27-2.23,0.84l-6.92,6.34c-1.48,1.36-3.59,1.66-5.23,0.74c-2.42-1.34-5-2.45-7.67-3.3
			c-1.82-0.58-2.97-2.34-2.79-4.29l0.83-8.96c0.07-0.74-0.15-1.42-0.62-1.93c-0.46-0.51-1.12-0.79-1.85-0.79h-16.11
			c-1.58,0-2.98,1.29-3.13,2.87l-0.83,8.96c-0.18,1.91-1.56,3.58-3.43,4.14c-2.83,0.85-5.63,1.97-8.3,3.32
			c-1.81,0.91-3.88,0.58-5.14-0.81l-5.76-6.34c-0.43-0.48-1.04-0.76-1.72-0.79c-0.79-0.04-1.6,0.27-2.23,0.84l-12.44,11.39
			c-1.21,1.1-1.39,2.88-0.42,3.95l5.76,6.34c1.26,1.39,1.4,3.48,0.33,5.21c-1.58,2.55-2.95,5.24-4.05,8
			c-0.73,1.83-2.51,3.05-4.43,3.05h-8.96c-1.58,0-2.98,1.29-3.13,2.87l-1.48,16.11c-0.07,0.74,0.15,1.42,0.62,1.93
			c0.46,0.51,1.12,0.79,1.85,0.79h8.96c1.95,0,3.59,1.31,4,3.18c0.6,2.75,1.46,5.43,2.57,7.97c0.75,1.73,0.26,3.8-1.22,5.16
			l-6.92,6.34c-1.21,1.1-1.39,2.88-0.42,3.95l10.34,11.39c0.43,0.48,1.04,0.76,1.72,0.79c0.79,0.04,1.6-0.27,2.23-0.84l6.92-6.34
			C1513.12,475.27,1514.27,474.84,1515.39,474.84z M1482.24,425.6L1482.24,425.6L1482.24,425.6z M1540.54,464.27
			c-8.17,0-15.56-3.18-20.83-8.95c-5.29-5.8-7.79-13.53-7.04-21.74c1.55-16.84,16.52-30.54,33.36-30.54
			c8.17,0,15.57,3.18,20.83,8.95c5.29,5.8,7.79,13.53,7.04,21.74C1572.35,450.57,1557.38,464.27,1540.54,464.27z M1513.48,433.65
			l0.8,0.07c-0.71,7.76,1.64,15.04,6.62,20.5c4.95,5.43,11.93,8.42,19.63,8.42c16.03,0,30.27-13.04,31.75-29.07
			c0.71-7.76-1.64-15.04-6.62-20.5c-4.95-5.43-11.93-8.42-19.63-8.42c-16.03,0-30.27,13.04-31.75,29.07L1513.48,433.65z"/>
	</g>
	<g>
		
			<ellipse transform="matrix(0.7232 -0.6906 0.6906 0.7232 128.1166 1185.7748)" class="st2" cx="1543.34" cy="433.06" rx="12.01" ry="10.95"/>
		<path class="st1" d="M1542.29,445.34c-3.28,0-6.26-1.28-8.38-3.61c-2.13-2.34-3.14-5.44-2.84-8.75c0.62-6.73,6.6-12.2,13.33-12.2
			c3.28,0,6.26,1.28,8.38,3.61c2.13,2.34,3.14,5.44,2.84,8.75C1555,439.86,1549.02,445.34,1542.29,445.34z M1544.4,422.4
			c-5.92,0-11.18,4.82-11.72,10.73c-0.26,2.84,0.6,5.51,2.42,7.51c1.81,1.99,4.36,3.08,7.19,3.08c5.92,0,11.18-4.82,11.72-10.73
			c0.26-2.84-0.6-5.51-2.42-7.51C1549.77,423.49,1547.22,422.4,1544.4,422.4z"/>
	</g>
</g>
<g>
	<g>
		<path class="st2" d="M1084.5,676.54l-1.48,16.11c-0.18,1.99,1.28,3.6,3.27,3.6h8.96c1.58,0,2.88,1.03,3.21,2.55
			c0.62,2.83,1.5,5.55,2.62,8.12c0.61,1.4,0.2,3.12-1.02,4.24l-6.92,6.34c-1.54,1.41-1.75,3.69-0.47,5.09l10.34,11.39
			c1.28,1.41,3.56,1.41,5.09,0l6.92-6.34c1.22-1.12,2.96-1.37,4.3-0.63c2.45,1.36,5.06,2.49,7.81,3.37
			c1.47,0.47,2.37,1.86,2.23,3.44l-0.83,8.96c-0.18,1.99,1.28,3.6,3.27,3.6h16.11c1.99,0,3.75-1.61,3.93-3.6l0.83-8.96
			c0.15-1.58,1.31-2.97,2.86-3.44c2.91-0.88,5.73-2.01,8.43-3.37c1.47-0.74,3.16-0.49,4.18,0.63l5.76,6.34
			c1.28,1.41,3.56,1.41,5.09,0l12.44-11.39c1.54-1.41,1.75-3.69,0.47-5.09l-5.76-6.34c-1.02-1.12-1.11-2.84-0.24-4.24
			c1.6-2.58,2.98-5.29,4.12-8.12c0.61-1.51,2.09-2.55,3.68-2.55h8.96c1.99,0,3.75-1.61,3.93-3.6l1.48-16.11
			c0.18-1.99-1.28-3.6-3.27-3.6h-8.96c-1.58,0-2.88-1.03-3.21-2.55c-0.62-2.83-1.5-5.55-2.62-8.12c-0.61-1.4-0.2-3.12,1.02-4.24
			l6.92-6.34c1.54-1.41,1.75-3.69,0.47-5.09l-10.34-11.39c-1.28-1.41-3.56-1.41-5.09,0l-6.92,6.34c-1.22,1.12-2.96,1.37-4.3,0.63
			c-2.45-1.36-5.06-2.49-7.81-3.37c-1.47-0.47-2.37-1.86-2.23-3.44l0.83-8.96c0.18-1.99-1.28-3.6-3.27-3.6h-16.11
			c-1.99,0-3.75,1.61-3.93,3.6l-0.83,8.96c-0.15,1.58-1.31,2.97-2.86,3.44c-2.91,0.88-5.73,2.01-8.43,3.37
			c-1.47,0.74-3.16,0.49-4.18-0.63l-5.76-6.34c-1.28-1.41-3.56-1.41-5.09,0l-12.44,11.39c-1.54,1.41-1.75,3.69-0.47,5.09l5.76,6.34
			c1.02,1.12,1.11,2.84,0.24,4.24c-1.6,2.58-2.98,5.29-4.12,8.12c-0.61,1.51-2.09,2.55-3.68,2.55h-8.96
			C1086.44,672.94,1084.68,674.55,1084.5,676.54z M1115.74,684.6c1.52-16.46,16.09-29.81,32.55-29.81s28.58,13.34,27.06,29.81
			c-1.52,16.46-16.09,29.81-32.55,29.81S1114.22,701.06,1115.74,684.6z"/>
		<path class="st1" d="M1147.91,747.19h-16.11c-1.19,0-2.27-0.47-3.04-1.31c-0.78-0.85-1.14-1.98-1.03-3.17l0.83-8.96
			c0.11-1.2-0.56-2.24-1.67-2.6c-2.77-0.88-5.45-2.04-7.96-3.43c-1.04-0.58-2.39-0.37-3.36,0.52l-6.92,6.34
			c-0.94,0.86-2.17,1.32-3.39,1.26c-1.11-0.05-2.12-0.52-2.84-1.31l-10.34-11.39c-1.57-1.73-1.34-4.53,0.52-6.23l6.92-6.34
			c0.97-0.89,1.3-2.22,0.83-3.32c-1.15-2.64-2.05-5.42-2.67-8.27c-0.25-1.14-1.22-1.91-2.42-1.91h-8.96c-1.19,0-2.27-0.47-3.04-1.31
			c-0.78-0.85-1.14-1.98-1.03-3.17l1.48-16.11c0.22-2.39,2.35-4.33,4.74-4.33h8.96c1.24,0,2.44-0.84,2.93-2.04
			c1.14-2.84,2.55-5.61,4.18-8.25c0.68-1.1,0.62-2.42-0.15-3.27l-5.76-6.34c-1.57-1.73-1.34-4.53,0.52-6.23l12.44-11.39
			c0.94-0.86,2.17-1.32,3.39-1.26c1.11,0.05,2.12,0.52,2.84,1.31l5.76,6.34c0.77,0.85,2.07,1.03,3.22,0.45
			c2.76-1.39,5.64-2.54,8.56-3.42c1.23-0.37,2.18-1.5,2.29-2.74l0.83-8.96c0.22-2.39,2.35-4.33,4.74-4.33h16.11
			c1.19,0,2.27,0.47,3.04,1.31c0.78,0.85,1.14,1.98,1.03,3.17l-0.83,8.96c-0.11,1.2,0.56,2.24,1.67,2.6
			c2.77,0.88,5.44,2.04,7.96,3.43c1.04,0.58,2.39,0.37,3.36-0.52l6.92-6.34c0.94-0.86,2.17-1.32,3.39-1.26
			c1.11,0.05,2.12,0.52,2.84,1.31l10.34,11.39c1.57,1.73,1.34,4.53-0.52,6.23l-6.92,6.34c-0.97,0.89-1.3,2.22-0.83,3.32
			c1.15,2.64,2.05,5.43,2.67,8.27c0.25,1.14,1.22,1.91,2.42,1.91h8.96c1.19,0,2.27,0.47,3.04,1.31c0.78,0.85,1.14,1.98,1.03,3.17
			l-1.48,16.11c-0.22,2.39-2.35,4.33-4.74,4.33h-8.96c-1.24,0-2.44,0.84-2.93,2.04c-1.14,2.84-2.55,5.62-4.18,8.25
			c-0.68,1.1-0.62,2.42,0.15,3.27l5.76,6.34c1.57,1.73,1.34,4.53-0.52,6.23l-12.44,11.39c-0.94,0.86-2.17,1.32-3.39,1.26
			c-1.11-0.05-2.12-0.52-2.84-1.31l-5.76-6.34c-0.77-0.85-2.07-1.03-3.22-0.45c-2.76,1.39-5.64,2.54-8.56,3.42
			c-1.23,0.37-2.18,1.5-2.29,2.74l-0.83,8.96C1152.42,745.25,1150.3,747.19,1147.91,747.19z M1117.65,725.78
			c0.71,0,1.42,0.17,2.05,0.53c2.42,1.34,5,2.45,7.67,3.3c1.82,0.58,2.97,2.34,2.79,4.29l-0.83,8.96c-0.07,0.74,0.15,1.42,0.62,1.93
			c0.46,0.51,1.12,0.79,1.85,0.79h16.11c1.58,0,2.98-1.29,3.13-2.87l0.83-8.96c0.18-1.91,1.56-3.58,3.43-4.14
			c2.83-0.85,5.63-1.97,8.3-3.32c1.81-0.91,3.88-0.58,5.14,0.81l5.76,6.34c0.43,0.48,1.04,0.76,1.72,0.79
			c0.79,0.04,1.6-0.27,2.23-0.84l12.44-11.39c1.21-1.1,1.39-2.88,0.42-3.95l-5.76-6.34c-1.26-1.39-1.4-3.48-0.33-5.21
			c1.58-2.55,2.95-5.24,4.05-8c0.73-1.83,2.51-3.05,4.43-3.05h8.96c1.58,0,2.98-1.29,3.13-2.87l1.48-16.11
			c0.07-0.74-0.15-1.42-0.62-1.93c-0.46-0.51-1.12-0.79-1.85-0.79h-8.96c-1.95,0-3.59-1.31-4-3.18c-0.6-2.75-1.46-5.43-2.57-7.97
			c-0.75-1.73-0.26-3.8,1.22-5.16l6.92-6.34c1.21-1.1,1.39-2.88,0.42-3.95l-10.34-11.39c-0.43-0.48-1.04-0.76-1.72-0.79
			c-0.79-0.04-1.6,0.27-2.23,0.84l-6.92,6.34c-1.48,1.36-3.59,1.66-5.23,0.74c-2.42-1.34-5-2.45-7.67-3.3
			c-1.82-0.58-2.97-2.34-2.79-4.29l0.83-8.96c0.07-0.74-0.15-1.42-0.62-1.93c-0.46-0.51-1.12-0.79-1.85-0.79h-16.11
			c-1.58,0-2.98,1.29-3.13,2.87l-0.83,8.96c-0.18,1.91-1.56,3.58-3.43,4.14c-2.83,0.85-5.62,1.97-8.3,3.32
			c-1.81,0.91-3.88,0.58-5.14-0.81l-5.76-6.34c-0.43-0.48-1.04-0.76-1.72-0.79c-0.79-0.04-1.6,0.27-2.23,0.84l-12.44,11.39
			c-1.21,1.1-1.39,2.88-0.42,3.95l5.76,6.34c1.26,1.39,1.4,3.48,0.33,5.21c-1.58,2.55-2.95,5.25-4.05,8
			c-0.73,1.83-2.51,3.05-4.43,3.05h-8.96c-1.58,0-2.98,1.29-3.13,2.87l-1.48,16.11c-0.07,0.74,0.15,1.42,0.62,1.93
			c0.46,0.51,1.12,0.79,1.85,0.79h8.96c1.95,0,3.59,1.31,4,3.18c0.6,2.75,1.46,5.43,2.57,7.97c0.75,1.73,0.26,3.8-1.22,5.16
			l-6.92,6.34c-1.21,1.1-1.39,2.88-0.42,3.95l10.34,11.39c0.43,0.48,1.04,0.76,1.72,0.79c0.79,0.04,1.6-0.27,2.23-0.84l6.92-6.34
			C1115.38,726.21,1116.52,725.78,1117.65,725.78z M1142.8,715.21c-8.17,0-15.57-3.18-20.83-8.95c-5.29-5.8-7.79-13.53-7.04-21.74
			c1.55-16.84,16.52-30.54,33.36-30.54c8.17,0,15.57,3.18,20.83,8.95c5.29,5.8,7.79,13.53,7.04,21.74
			C1174.6,701.51,1159.64,715.21,1142.8,715.21z M1115.74,684.6l0.8,0.07c-0.71,7.76,1.64,15.04,6.62,20.5
			c4.95,5.43,11.93,8.42,19.63,8.42c16.03,0,30.27-13.04,31.75-29.07c0.71-7.76-1.64-15.04-6.62-20.5
			c-4.95-5.43-11.93-8.42-19.63-8.42c-16.03,0-30.27,13.04-31.75,29.07L1115.74,684.6z"/>
	</g>
	<g>
		
			<ellipse transform="matrix(0.7232 -0.6906 0.6906 0.7232 -155.294 980.5374)" class="st2" cx="1145.6" cy="684" rx="12.01" ry="10.95"/>
		<path class="st1" d="M1144.54,696.28c-3.28,0-6.26-1.28-8.38-3.61c-2.13-2.34-3.14-5.44-2.84-8.75l0,0
			c0.62-6.73,6.6-12.2,13.33-12.2c3.28,0,6.26,1.28,8.38,3.61c2.13,2.34,3.14,5.44,2.84,8.75
			C1157.25,690.8,1151.27,696.28,1144.54,696.28z M1134.93,684.08c-0.26,2.84,0.6,5.51,2.42,7.51c1.81,1.98,4.36,3.08,7.19,3.08
			c5.92,0,11.18-4.82,11.72-10.73c0.26-2.84-0.6-5.51-2.42-7.51c-1.81-1.99-4.36-3.08-7.19-3.08
			C1140.74,673.34,1135.48,678.16,1134.93,684.08L1134.93,684.08z"/>
	</g>
</g>
<g>
	<g>
		<path class="st2" d="M1203.08,343.79c24,0,43.45,19.45,43.45,43.45c0,4.55-0.7,8.94-2,13.07l15.58,24.74l-29.07-4.56
			c-7.56,6.36-17.31,10.2-27.97,10.2c-24,0-43.45-19.45-43.45-43.45C1159.63,363.25,1179.08,343.79,1203.08,343.79z"/>
		<path class="st1" d="M1203.08,431.5c-24.4,0-44.26-19.85-44.26-44.26c0-24.4,19.85-44.26,44.26-44.26
			c24.4,0,44.26,19.85,44.26,44.26c0,4.41-0.65,8.77-1.93,12.95l15.38,24.43c0.17,0.27,0.17,0.61-0.01,0.88
			c-0.17,0.26-0.49,0.4-0.8,0.35l-28.7-4.5C1223.37,427.9,1213.37,431.5,1203.08,431.5z M1203.08,344.6
			c-23.51,0-42.64,19.13-42.64,42.64c0,23.51,19.13,42.64,42.64,42.64c10.03,0,19.78-3.55,27.45-10.01
			c0.18-0.15,0.42-0.22,0.65-0.18l27.31,4.28l-14.64-23.24c-0.13-0.2-0.16-0.45-0.09-0.67c1.3-4.14,1.96-8.45,1.96-12.83
			C1245.72,363.73,1226.59,344.6,1203.08,344.6z"/>
	</g>
	<g>
		<polygon class="st0" points="1202.87,359.99 1211.33,377.13 1230.24,379.88 1216.56,393.22 1219.79,412.06 1202.87,403.17 
			1185.95,412.06 1189.18,393.22 1175.5,379.88 1194.41,377.13 		"/>
		<path class="st1" d="M1219.79,412.87c-0.13,0-0.26-0.03-0.38-0.09l-16.54-8.7l-16.54,8.7c-0.27,0.14-0.6,0.12-0.85-0.06
			c-0.25-0.18-0.37-0.49-0.32-0.79l3.16-18.42l-13.38-13.04c-0.22-0.21-0.3-0.54-0.2-0.83c0.1-0.29,0.35-0.51,0.65-0.55l18.49-2.69
			l8.27-16.76c0.14-0.28,0.42-0.45,0.72-0.45s0.59,0.17,0.72,0.45l8.27,16.76l18.49,2.69c0.3,0.04,0.56,0.26,0.65,0.55
			c0.09,0.29,0.02,0.61-0.2,0.83l-13.38,13.04l3.16,18.42c0.05,0.3-0.07,0.61-0.32,0.79
			C1220.12,412.82,1219.96,412.87,1219.79,412.87z M1202.87,402.36c0.13,0,0.26,0.03,0.38,0.09l15.47,8.13l-2.95-17.22
			c-0.05-0.26,0.04-0.53,0.23-0.72l12.51-12.2l-17.29-2.51c-0.26-0.04-0.49-0.2-0.61-0.44l-7.73-15.67l-7.73,15.67
			c-0.12,0.24-0.35,0.4-0.61,0.44l-17.29,2.51l12.51,12.2c0.19,0.19,0.28,0.45,0.23,0.72l-2.95,17.22l15.47-8.13
			C1202.61,402.39,1202.74,402.36,1202.87,402.36z"/>
	</g>
</g>
<path class="st1" d="M1521.42,762.04h-358.84c-0.45,0-0.81-0.36-0.81-0.81s0.36-0.81,0.81-0.81h358.84c0.45,0,0.81,0.36,0.81,0.81
	S1521.87,762.04,1521.42,762.04z"/>
<g>
	<path class="st0" d="M1414.03,502.2h215.63l1.47-7.93l2.61-14.08c0.88-4.78-2.78-9.19-7.64-9.19h-199.82
		c-3.75,0-6.96,2.67-7.64,6.36l-3.13,16.91L1414.03,502.2z"/>
	<g>
		<path class="st2" d="M1400.01,628.43h199.82c3.75,0,6.96-2.67,7.64-6.36l22.18-119.87h-215.63l-21.66,117.04
			C1391.48,624.02,1395.15,628.43,1400.01,628.43z"/>
		<path class="st1" d="M1599.84,629.24h-199.82c-2.56,0-4.96-1.13-6.6-3.09c-1.63-1.97-2.3-4.53-1.84-7.05l21.66-117.04
			c0.07-0.38,0.41-0.66,0.79-0.66h215.63c0.24,0,0.47,0.11,0.62,0.29s0.22,0.43,0.17,0.66l-22.18,119.87
			C1607.52,626.29,1603.97,629.24,1599.84,629.24z M1414.7,503.01l-21.54,116.38c-0.38,2.04,0.16,4.12,1.49,5.72
			c1.33,1.6,3.28,2.51,5.36,2.51h199.82c3.36,0,6.24-2.4,6.85-5.7l22.01-118.92H1414.7z"/>
	</g>
	<g>
		<circle class="st2" cx="1499.02" cy="486.6" r="7.92"/>
		<circle class="st2" cx="1469.67" cy="486.6" r="7.92"/>
		<circle class="st2" cx="1440.32" cy="486.6" r="7.92"/>
	</g>
	<g>
		<polygon class="st2" points="1545.83,519.72 1604.52,519.72 1606.35,511.39 1547.65,511.39 		"/>
		<path class="st1" d="M1604.52,520.52h-58.7c-0.24,0-0.48-0.11-0.63-0.3c-0.15-0.19-0.21-0.44-0.16-0.68l1.83-8.32
			c0.08-0.37,0.41-0.64,0.79-0.64h58.7c0.24,0,0.48,0.11,0.63,0.3c0.15,0.19,0.21,0.44,0.16,0.68l-1.83,8.32
			C1605.23,520.26,1604.9,520.52,1604.52,520.52z M1546.83,518.91h57.04l1.47-6.71h-57.04L1546.83,518.91z"/>
	</g>
	<g>
		<polygon class="st2" points="1543.29,533.01 1601.98,533.01 1603.81,524.69 1545.11,524.69 		"/>
		<path class="st1" d="M1601.98,533.82h-58.7c-0.24,0-0.48-0.11-0.63-0.3c-0.15-0.19-0.21-0.44-0.16-0.68l1.83-8.32
			c0.08-0.37,0.41-0.64,0.79-0.64h58.7c0.24,0,0.48,0.11,0.63,0.3c0.15,0.19,0.21,0.44,0.16,0.68l-1.83,8.32
			C1602.69,533.56,1602.36,533.82,1601.98,533.82z M1544.29,532.21h57.04l1.47-6.71h-57.04L1544.29,532.21z"/>
	</g>
	<polygon class="st0" points="1540.75,545.02 1599.44,545.02 1601.27,536.69 1542.57,536.69 	"/>
	<g>
		<path class="st1" d="M1440.32,606.86h-12.06c-0.25,0-0.48-0.11-0.63-0.3c-0.15-0.19-0.21-0.44-0.16-0.68l9.05-40.73
			c0.08-0.37,0.41-0.63,0.79-0.63h12.06c0.25,0,0.48,0.11,0.63,0.3c0.15,0.19,0.21,0.44,0.16,0.68l-9.05,40.73
			C1441.03,606.59,1440.7,606.86,1440.32,606.86z M1429.27,605.24h10.41l8.69-39.11h-10.41L1429.27,605.24z"/>
		<polygon class="st0" points="1463.57,606.05 1451.5,606.05 1464.57,551.13 1476.64,551.13 		"/>
		<path class="st1" d="M1486.81,606.86h-12.06c-0.25,0-0.48-0.11-0.64-0.31c-0.15-0.2-0.21-0.45-0.15-0.69l17.09-69.11
			c0.09-0.36,0.41-0.61,0.78-0.61h12.06c0.25,0,0.48,0.11,0.64,0.31c0.15,0.2,0.21,0.45,0.15,0.69l-17.09,69.11
			C1487.51,606.6,1487.18,606.86,1486.81,606.86z M1475.78,605.24h10.4l16.69-67.5h-10.4L1475.78,605.24z"/>
		<polygon class="st0" points="1510.06,606.05 1497.99,606.05 1519.1,522.74 1531.17,522.74 		"/>
	</g>
	<path class="st1" d="M1585.6,606.86h-166.49c-0.45,0-0.81-0.36-0.81-0.81s0.36-0.81,0.81-0.81h166.49c0.45,0,0.81,0.36,0.81,0.81
		S1586.04,606.86,1585.6,606.86z"/>
	<g>
		<g>
			
				<ellipse transform="matrix(0.7398 -0.6728 0.6728 0.7398 21.4776 1202.4525)" class="st2" cx="1565.56" cy="573.45" rx="24.5" ry="20.26"/>
			<path class="st1" d="M1561.32,596.54c-6.12,0-11.45-2.37-15.02-6.68c-3.65-4.41-5-10.29-3.81-16.56
				c2.41-12.64,14.66-22.93,27.31-22.93c6.12,0,11.45,2.37,15.02,6.68c3.65,4.41,5,10.29,3.81,16.56
				C1586.22,586.25,1573.97,596.54,1561.32,596.54z M1569.8,551.99c-11.91,0-23.45,9.7-25.72,21.62c-1.1,5.78,0.13,11.19,3.47,15.22
				c3.25,3.93,8.14,6.09,13.77,6.09c11.91,0,23.45-9.7,25.72-21.62l0,0c1.1-5.78-0.13-11.19-3.47-15.22
				C1580.32,554.15,1575.43,551.99,1569.8,551.99z"/>
		</g>
		<path class="st1" d="M1565.56,574.26h-22.27c-0.45,0-0.81-0.36-0.81-0.81s0.36-0.81,0.81-0.81H1565l7.79-21.42
			c0.15-0.42,0.62-0.64,1.04-0.48c0.42,0.15,0.64,0.62,0.48,1.04l-7.99,21.95C1566.2,574.05,1565.9,574.26,1565.56,574.26z"/>
		
			<ellipse transform="matrix(0.7398 -0.6728 0.6728 0.7398 21.4776 1202.4525)" class="st0" cx="1565.56" cy="573.45" rx="5.35" ry="4.43"/>
	</g>
	<g>
		<circle class="st2" cx="1586.94" cy="606.05" r="5.39"/>
		<path class="st1" d="M1586.94,612.25c-3.42,0-6.2-2.78-6.2-6.2s2.78-6.2,6.2-6.2s6.2,2.78,6.2,6.2S1590.35,612.25,1586.94,612.25z
			 M1586.94,601.47c-2.53,0-4.58,2.05-4.58,4.58s2.05,4.58,4.58,4.58s4.58-2.05,4.58-4.58S1589.46,601.47,1586.94,601.47z"/>
	</g>
	<g>
		<circle class="st2" cx="1589.71" cy="567.87" r="5.39"/>
		<path class="st1" d="M1589.71,574.06c-3.42,0-6.2-2.78-6.2-6.2s2.78-6.2,6.2-6.2s6.2,2.78,6.2,6.2S1593.12,574.06,1589.71,574.06z
			 M1589.71,563.29c-2.53,0-4.58,2.05-4.58,4.58c0,2.53,2.05,4.58,4.58,4.58c2.53,0,4.58-2.05,4.58-4.58
			C1594.29,565.34,1592.23,563.29,1589.71,563.29z"/>
	</g>
</g>
<g>
	<g>
		<circle class="st2" cx="1224.04" cy="475.07" r="12.79"/>
		<path class="st1" d="M1224.04,488.67c-7.5,0-13.6-6.1-13.6-13.6s6.1-13.6,13.6-13.6c7.5,0,13.6,6.1,13.6,13.6
			S1231.54,488.67,1224.04,488.67z M1224.04,463.09c-6.61,0-11.98,5.38-11.98,11.98c0,6.61,5.38,11.98,11.98,11.98
			c6.61,0,11.98-5.38,11.98-11.98C1236.03,468.46,1230.65,463.09,1224.04,463.09z"/>
	</g>
	<g>
		<path class="st2" d="M1223.54,581.6l-3.71-19.77c-0.38-2.05,0.07-4.17,1.28-5.87c2.21-3.12,5.68-8.85,6.76-15.37l-1.49-36.84
			c0,0-7.25-2.65-10.4,12.93l-2.53,9.87l-33.24,25.52c0,0-2.94,8.09,2.97,16.63l2.25,21.92L1223.54,581.6z"/>
		<path class="st1" d="M1185.41,591.44c-0.17,0-0.33-0.05-0.47-0.15c-0.19-0.13-0.31-0.34-0.34-0.58l-2.23-21.72
			c-5.92-8.72-3.07-16.85-2.95-17.2c0.05-0.15,0.15-0.27,0.27-0.37l33.02-25.35l2.46-9.58c1.37-6.77,3.68-11.11,6.87-12.89
			c2.46-1.38,4.51-0.65,4.6-0.62c0.31,0.11,0.52,0.4,0.53,0.73l1.49,36.84c0,0.06,0,0.11-0.01,0.16c-1.12,6.78-4.8,12.75-6.9,15.7
			c-1.07,1.51-1.49,3.43-1.14,5.26l3.71,19.77c0.08,0.42-0.19,0.84-0.61,0.94l-38.13,9.03
			C1185.54,591.43,1185.47,591.44,1185.41,591.44z M1180.89,552.56c-0.38,1.3-2.12,8.36,2.94,15.69c0.08,0.11,0.13,0.24,0.14,0.38
			l2.15,21.01l36.48-8.64l-3.56-19.01c-0.42-2.26,0.09-4.63,1.41-6.49c2.01-2.83,5.52-8.52,6.61-14.95l-1.47-36.13
			c-0.58-0.07-1.61-0.04-2.8,0.64c-1.88,1.08-4.46,4-6.03,11.79c0,0.01-0.01,0.03-0.01,0.04l-2.53,9.87
			c-0.05,0.18-0.15,0.33-0.29,0.44L1180.89,552.56z"/>
	</g>
	<path class="st1" d="M1349.2,433.65c0,0,48.84-56.23,70.92-27.78C1442.19,434.31,1349.2,433.65,1349.2,433.65z"/>
	<g>
		<ellipse class="st0" cx="1350.15" cy="433.23" rx="9.44" ry="10.15"/>
		<path class="st1" d="M1350.15,444.19c-5.65,0-10.24-4.92-10.24-10.96s4.6-10.96,10.24-10.96s10.24,4.92,10.24,10.96
			S1355.79,444.19,1350.15,444.19z M1350.15,423.89c-4.76,0-8.63,4.19-8.63,9.34c0,5.15,3.87,9.34,8.63,9.34s8.63-4.19,8.63-9.34
			C1358.77,428.08,1354.9,423.89,1350.15,423.89z"/>
	</g>
	<g>
		<path class="st1" d="M1348.13,503.97v2.74c0,0-3.17,26.23-40.42,23.63l0.68-11.52C1320.36,526.21,1339.34,518.26,1348.13,503.97z"
			/>
		<path class="st1" d="M1312.73,531.33c-1.65,0-3.34-0.06-5.07-0.18c-0.44-0.03-0.78-0.41-0.75-0.85l0.68-11.52
			c0.02-0.28,0.18-0.54,0.43-0.67c0.25-0.13,0.56-0.12,0.8,0.03c4.42,2.73,10,3.41,16.14,1.95c8.89-2.1,17.5-8.44,22.48-16.54
			c0.19-0.31,0.56-0.45,0.91-0.35c0.35,0.1,0.59,0.42,0.59,0.78v2.74c0,0.03,0,0.06-0.01,0.1c-0.03,0.28-0.89,6.88-6.43,13.23
			c-3.25,3.72-7.45,6.57-12.47,8.47C1325.06,530.38,1319.25,531.33,1312.73,531.33z M1308.57,529.59
			c8.02,0.48,15.02-0.39,20.83-2.58c4.77-1.79,8.75-4.48,11.83-7.98c5.03-5.72,6.02-11.81,6.1-12.38v-0.02
			c-5.33,7.37-13.54,13.02-21.99,15.02c-6.05,1.43-11.62,0.91-16.21-1.49L1308.57,529.59z"/>
	</g>
	<path class="st1" d="M1348.13,504.78c-0.14,0-0.29-0.04-0.42-0.12c-0.38-0.23-0.5-0.73-0.26-1.11c0.92-1.49,1.72-3.05,2.37-4.62
		c0.14-0.34,0.5-0.54,0.86-0.49c0.03,0,2.97,0.4,6.49-0.69c4.68-1.45,8.13-4.71,10.28-9.7c2.69-6.27,2.32-11.27-1.02-13.72
		c-1.96-1.44-4.81-1.9-8.01-1.29c-3.42,0.64-7.02,2.48-10.15,5.18c-0.34,0.29-0.85,0.25-1.14-0.08c-0.29-0.34-0.25-0.85,0.08-1.14
		c6.81-5.87,15.3-7.54,20.17-3.97c4,2.93,4.57,8.64,1.55,15.66c-2.93,6.81-7.79,9.54-11.35,10.62c-2.89,0.88-5.38,0.86-6.5,0.79
		c-0.64,1.46-1.39,2.9-2.25,4.3C1348.67,504.64,1348.41,504.78,1348.13,504.78z"/>
	<path class="st1" d="M1308.4,519.62c-0.15,0-0.29-0.04-0.42-0.12c-3.84-2.38-6.72-6.07-8.56-10.99
		c-4.11-10.97-4.15-24.47-3.46-33.87c0.75-10.15,2.48-17.84,2.5-17.92c0.1-0.44,0.53-0.71,0.97-0.61c0.44,0.1,0.71,0.53,0.61,0.97
		c-0.07,0.3-6.79,30.36,0.89,50.86c1.71,4.57,4.37,8,7.9,10.18c0.38,0.23,0.5,0.73,0.26,1.11
		C1308.93,519.49,1308.67,519.62,1308.4,519.62z"/>
	<path class="st1" d="M1346.14,462.96c0,0-8.22,5.84-8.24-2.91s0.51-17.34,0.51-17.34s-11.45,19.23-52.11,16.32
		c-7.59-8.42,23.91-47.95,54.65-28.1c21.6,8.5,18.87,21.96,18.11,40.84l-12.7,5.82L1346.14,462.96z"/>
	<path class="st1" d="M1348.13,543.27c-0.45,0-0.81-0.36-0.81-0.81v-35.76c0-0.45,0.36-0.81,0.81-0.81s0.81,0.36,0.81,0.81v35.76
		C1348.94,542.91,1348.58,543.27,1348.13,543.27z"/>
	<path class="st1" d="M1306.76,547.22c-0.02,0-0.03,0-0.05,0c-0.45-0.03-0.79-0.41-0.76-0.85l0.95-16.07
		c0.03-0.45,0.41-0.78,0.85-0.76c0.45,0.03,0.79,0.41,0.76,0.85l-0.95,16.07C1307.54,546.88,1307.19,547.22,1306.76,547.22z"/>
	<path class="st1" d="M1349.91,495.86c-0.1,0-0.2-0.02-0.3-0.06c-0.42-0.16-0.62-0.63-0.46-1.05c3.27-8.32,6.65-13.98,9.77-16.38
		c0.03-0.02,0.05-0.04,0.07-0.05c0.26-0.28,0.69-0.34,1.02-0.12c0.38,0.24,0.48,0.74,0.24,1.12c-0.09,0.14-0.2,0.22-0.35,0.34
		c-2.85,2.19-6.13,7.76-9.25,15.69C1350.54,495.66,1350.24,495.86,1349.91,495.86z M1358.9,478.44
		C1358.9,478.44,1358.9,478.44,1358.9,478.44C1358.9,478.44,1358.9,478.44,1358.9,478.44z"/>
	<path class="st1" d="M1360.62,488.67h-7.52c-0.45,0-0.81-0.36-0.81-0.81s0.36-0.81,0.81-0.81h7.52c0.45,0,0.81,0.36,0.81,0.81
		S1361.06,488.67,1360.62,488.67z"/>
	<path class="st1" d="M1312.33,495.14h-7.85c-0.27,0-0.53-0.14-0.68-0.37c-0.15-0.23-0.17-0.52-0.06-0.77
		c5.22-11.98,7.77-26.31,7.8-26.46c0.08-0.44,0.5-0.73,0.94-0.66c0.44,0.08,0.73,0.5,0.66,0.94c-0.02,0.14-2.45,13.78-7.43,25.69
		h6.63c0.45,0,0.81,0.36,0.81,0.81S1312.77,495.14,1312.33,495.14z"/>
	<circle class="st1" cx="1304.56" cy="473.49" r="3.03"/>
	<circle class="st1" cx="1323.92" cy="473.49" r="3.03"/>
	<path class="st1" d="M1334.37,470.09c-0.3,0-0.59-0.17-0.73-0.45c-1.37-2.79-3.13-4.47-5.24-5c-3.2-0.81-6.22,1.32-6.25,1.34
		c-0.36,0.26-0.87,0.18-1.13-0.19c-0.26-0.36-0.18-0.87,0.18-1.13c0.15-0.11,3.64-2.58,7.58-1.6c2.59,0.65,4.71,2.62,6.31,5.86
		c0.2,0.4,0.03,0.88-0.37,1.08C1334.61,470.06,1334.49,470.09,1334.37,470.09z"/>
	<path class="st1" d="M1319.2,507.52c-0.38,0-0.77-0.04-1.18-0.13c-0.44-0.09-0.71-0.52-0.62-0.96c0.09-0.44,0.52-0.71,0.96-0.62
		c1.06,0.23,1.91,0.04,2.6-0.57c2.01-1.79,2.35-6.78,2.28-10.11c-2.14,2.66-5.29,5.37-9.55,6.15c-3.19,0.59-5.47-0.2-5.57-0.23
		c-0.42-0.15-0.64-0.61-0.49-1.03c0.15-0.42,0.61-0.64,1.03-0.5c0.33,0.11,8.09,2.64,14.59-7.14c0.19-0.28,0.54-0.42,0.87-0.34
		c0.33,0.08,0.58,0.36,0.61,0.7c0.04,0.42,0.99,10.41-2.69,13.69C1321.23,507.15,1320.28,507.52,1319.2,507.52z"/>
	<path class="st1" d="M1293.78,466.44c-0.26,0-0.51-0.12-0.66-0.35c-0.25-0.37-0.16-0.87,0.2-1.12c4.96-3.45,10.4-1.16,11.02-0.53
		c0.31,0.32,0.31,0.83-0.01,1.14c-0.3,0.3-0.78,0.31-1.1,0.04c-0.58-0.39-4.97-2.12-9,0.68
		C1294.1,466.4,1293.94,466.44,1293.78,466.44z M1303.19,465.57c0.01,0.01,0.02,0.02,0.04,0.03
		C1303.21,465.59,1303.2,465.58,1303.19,465.57z"/>
	<path class="st0" d="M1353.1,534.01l-51.24,2.88l-0.34,18.32l-16.21,4.74c0,0-18.91,5.71-26.05,20.69l-22.61,55.94l-10.38-68.78
		l-49.11,8.1l18.71,125.6c5.31,22.51,27.14,35.39,56.05,14.45l34.16-55.96l0.52,25.65l-12.04,61.74h128.78l-2.12-19.74l24.57,14.26
		c20.99,13.89,63.64-11.76,36.69-53.92l-54.63-116.93c0,0-7.11-13.39-37.83-14.96l-16.94-3.93V534.01z"/>
	<circle class="st3" cx="1335.69" cy="487.97" r="7.15"/>
	<circle class="st3" cx="1295.75" cy="487.97" r="7.15"/>
	<path class="st1" d="M1309.54,559.51c-0.45,0-0.81-0.36-0.81-0.81v-19.89c0-0.45,0.36-0.81,0.81-0.81s0.81,0.36,0.81,0.81v19.89
		C1310.35,559.15,1309.98,559.51,1309.54,559.51z"/>
	<path class="st1" d="M1319.66,560.21c-0.45,0-0.81-0.36-0.81-0.81v-19.37c0-0.45,0.36-0.81,0.81-0.81s0.81,0.36,0.81,0.81v19.37
		C1320.47,559.85,1320.1,560.21,1319.66,560.21z"/>
	<path class="st1" d="M1335.2,558.47c-0.44,0-0.8-0.36-0.81-0.8l-0.21-18.84c-0.01-0.45,0.35-0.81,0.8-0.82c0,0,0.01,0,0.01,0
		c0.44,0,0.8,0.36,0.81,0.8l0.21,18.84C1336.01,558.1,1335.65,558.46,1335.2,558.47C1335.21,558.47,1335.2,558.47,1335.2,558.47z"/>
	<path class="st1" d="M1346.36,556.9c-0.45,0-0.81-0.36-0.81-0.81v-16.58c0-0.45,0.36-0.81,0.81-0.81s0.81,0.36,0.81,0.81v16.58
		C1347.16,556.53,1346.8,556.9,1346.36,556.9z"/>
	<path class="st1" d="M1324.89,473.49c-0.44,0-0.79-0.35-0.81-0.79c-0.01-0.45,0.34-0.82,0.78-0.83c2.57-0.07,3.59-1.8,3.6-1.82
		c0.22-0.39,0.71-0.52,1.1-0.3s0.52,0.71,0.3,1.1c-0.06,0.1-1.49,2.53-4.95,2.63C1324.91,473.49,1324.9,473.49,1324.89,473.49z"/>
	<path class="st1" d="M1304.47,473.49c-0.07,0-0.14-0.01-0.2-0.03c-3.46-0.9-5.05-4.54-5.12-4.7c-0.17-0.41,0.02-0.89,0.43-1.06
		c0.41-0.17,0.88,0.02,1.06,0.43c0.02,0.04,1.36,3.07,4.03,3.77c0.43,0.11,0.69,0.55,0.58,0.99
		C1305.16,473.25,1304.83,473.49,1304.47,473.49z"/>
	<path class="st1" d="M1306.76,692.21h-17c-0.45,0-0.81-0.36-0.81-0.81s0.36-0.81,0.81-0.81h17c0.45,0,0.81,0.36,0.81,0.81
		S1307.21,692.21,1306.76,692.21z"/>
	<path class="st1" d="M1431.1,692.21c-0.14,0-0.28-0.04-0.41-0.11l-29.87-17.47c-0.39-0.23-0.52-0.72-0.29-1.11
		c0.23-0.39,0.72-0.51,1.11-0.29l26.43,15.46c-3.86-5.2-11.81-16.07-19.42-27.36c-6.19-9.18-10.95-16.83-14.16-22.76
		c-5.57-10.3-5.31-13.3-4.64-14.66c0.31-0.63,0.99-1.37,2.46-1.37c3.19,0,7.13,3.24,12.03,9.9c3.76,5.11,8.07,12.23,12.81,21.15
		c8.04,15.17,14.63,30.53,14.69,30.68c0.18,0.41-0.02,0.89-0.43,1.06c-0.41,0.18-0.89-0.02-1.06-0.43
		c-0.07-0.15-6.63-15.46-14.64-30.57c-5.98-11.27-16.97-30.19-23.41-30.19c-0.77,0-0.94,0.33-1.01,0.48
		c-0.45,0.9-0.45,3.81,4.61,13.17c3.18,5.88,7.92,13.49,14.08,22.62c10.5,15.57,21.64,30.34,21.76,30.49
		c0.23,0.31,0.22,0.74-0.04,1.02C1431.54,692.11,1431.32,692.21,1431.1,692.21z"/>
	<path class="st1" d="M1241.41,695.89c-0.23,0-0.47-0.04-0.7-0.11c-1.52-0.5-3.57-2.7-3.8-15.97c-0.12-6.92,0.33-13.74,0.36-14.09
		c0.52-14.46,0-31.17,0-31.34c-0.01-0.45,0.34-0.82,0.78-0.83c0.45-0.02,0.82,0.34,0.83,0.78c0.01,0.17,0.52,16.95,0,31.46
		c0,0.01,0,0.02,0,0.03c0,0.07-0.47,6.98-0.35,13.98c0.22,12.67,2.11,14.26,2.68,14.45c0.27,0.09,1.33,0.12,3.47-3.27
		c9.83-15.51-3.76-49.63-3.9-49.97c-0.17-0.41,0.03-0.88,0.45-1.05c0.41-0.17,0.88,0.03,1.05,0.45c0.04,0.09,3.55,8.86,5.77,19.48
		c3,14.38,2.33,25.13-2,31.97C1244.9,693.63,1243.24,695.88,1241.41,695.89z M1238.07,665.75L1238.07,665.75L1238.07,665.75z"/>
	<path class="st1" d="M1286.09,660.8c-0.21,0-0.42-0.08-0.58-0.24c-6.66-6.82-9.51-20.38-8.48-40.32
		c0.76-14.74,3.49-27.68,3.51-27.81c0.09-0.44,0.52-0.71,0.96-0.62c0.44,0.09,0.72,0.52,0.62,0.96c-0.03,0.13-2.73,12.96-3.48,27.58
		c-0.99,19.18,1.78,32.69,8.02,39.08c0.31,0.32,0.31,0.83-0.01,1.14C1286.5,660.72,1286.3,660.8,1286.09,660.8z"/>
	<path class="st1" d="M1376.02,606.46c-0.45,0-0.81-0.36-0.81-0.81c0-27.69,10.63-32.73,11.08-32.93c0.41-0.18,0.89,0,1.07,0.41
		c0.18,0.41,0,0.88-0.41,1.06c-0.05,0.02-2.55,1.23-5.03,5.63c-4.21,7.47-5.09,18.17-5.09,25.83
		C1376.83,606.09,1376.46,606.46,1376.02,606.46z"/>
	<g>
		<g>
			<path class="st2" d="M1392.31,678.84c0,0-6.55-4.15-8.94-20.91c0,0-0.8-11.02-11.17-12.77l-27.94-2.79c0,0-6.99,4.01,0,7.58
				c0,0-8.96,4.81-3.16,9c-2.72-0.53-6.45,6.15-2.35,9.84c-4.07,1.37-2.47,8.81,2.35,8.11c0,0,18.4-6.7,20.64-0.15
				c4.19,17.54,13.17,21.46,21,28.76L1392.31,678.84z"/>
			<path class="st1" d="M1382.73,706.31c-0.2,0-0.4-0.08-0.55-0.22c-1.53-1.43-3.14-2.75-4.69-4.03
				c-6.44-5.3-13.1-10.79-16.53-25.09c-0.25-0.71-0.76-1.24-1.55-1.62c-2.03-0.97-5.77-0.89-10.81,0.23
				c-3.9,0.87-7.18,2.06-7.22,2.07c-0.05,0.02-0.11,0.03-0.16,0.04c-2.98,0.43-4.9-1.75-5.43-3.97c-0.58-2.43,0.33-4.23,1.65-5.16
				c-1.86-2.36-1.47-5.36-0.47-7.37c0.63-1.27,1.5-2.21,2.43-2.7c-0.76-0.89-1.11-1.85-1.04-2.89c0.1-1.5,1.08-3.04,2.92-4.57
				c0.5-0.42,1-0.78,1.42-1.06c-1.52-1.02-2.31-2.19-2.34-3.49c-0.07-2.72,3.37-4.73,3.51-4.81c0.15-0.08,0.32-0.12,0.48-0.1
				l27.94,2.79c0.02,0,0.04,0,0.05,0.01c4.51,0.76,7.99,3.35,10.07,7.48c1.48,2.95,1.75,5.67,1.78,6c1.2,8.41,3.48,13.49,5.17,16.27
				c1.83,3,3.39,4.04,3.4,4.05c0.31,0.2,0.45,0.6,0.32,0.95l-9.58,26.66c-0.09,0.26-0.31,0.45-0.57,0.51
				C1382.86,706.3,1382.79,706.31,1382.73,706.31z M1355.52,673.07c1.75,0,3.35,0.23,4.58,0.82c1.2,0.57,2.01,1.45,2.4,2.59
				c0.01,0.02,0.02,0.05,0.02,0.07c3.3,13.8,9.46,18.88,15.99,24.26c1.27,1.05,2.58,2.13,3.87,3.28l8.97-24.96
				c-1.66-1.39-6.73-6.72-8.78-21.08c0-0.02,0-0.04-0.01-0.06c-0.03-0.42-0.89-10.39-10.48-12.03l-27.64-2.76
				c-0.86,0.55-2.52,1.9-2.49,3.24c0.03,1.2,1.47,2.18,2.67,2.79c0.27,0.14,0.44,0.41,0.44,0.71c0,0.3-0.16,0.58-0.43,0.72
				c-1.25,0.68-4.54,2.9-4.68,5.04c-0.06,0.91,0.47,1.76,1.61,2.59c0.31,0.22,0.42,0.63,0.27,0.98c-0.15,0.35-0.52,0.54-0.9,0.47
				c-0.76-0.15-1.85,0.79-2.54,2.17c-0.91,1.83-1.16,4.44,0.88,6.28c0.21,0.19,0.31,0.48,0.25,0.76c-0.06,0.28-0.26,0.51-0.53,0.6
				c-1.63,0.55-1.99,2.35-1.65,3.8c0.55,2.29,2.23,2.91,3.55,2.75C1341.88,675.76,1349.57,673.07,1355.52,673.07z"/>
		</g>
		<g>
			<path class="st2" d="M1372.2,645.16l-15.12-8.54c-1.85-1.04-4.18,0.11-4.44,2.22c-0.22,1.76,0.15,3.64,2.28,4.6L1372.2,645.16z"
				/>
			<path class="st1" d="M1372.2,645.97c-0.03,0-0.05,0-0.08,0l-17.28-1.73c-0.09-0.01-0.17-0.03-0.25-0.07
				c-2.13-0.95-3.08-2.83-2.76-5.43c0.16-1.25,0.93-2.34,2.06-2.91c1.14-0.57,2.48-0.54,3.59,0.09l15.12,8.54
				c0.33,0.19,0.49,0.58,0.37,0.95C1372.86,645.74,1372.54,645.97,1372.2,645.97z M1355.13,642.64l13.32,1.33l-11.78-6.65
				c-0.65-0.37-1.4-0.38-2.06-0.05c-0.66,0.33-1.09,0.94-1.18,1.67C1353.2,640.76,1353.76,641.98,1355.13,642.64z"/>
		</g>
		<path class="st1" d="M1364.37,652.82c-0.03,0-0.06,0-0.08,0l-20.11-2.06c-0.44-0.05-0.77-0.44-0.72-0.89
			c0.05-0.44,0.44-0.77,0.89-0.72l20.11,2.06c0.44,0.05,0.77,0.44,0.72,0.89C1365.13,652.51,1364.78,652.82,1364.37,652.82z"/>
		<path class="st1" d="M1362.63,661.23c-0.02,0-0.04,0-0.06,0l-21.53-1.48c-0.45-0.03-0.78-0.42-0.75-0.86
			c0.03-0.45,0.42-0.78,0.86-0.75l21.53,1.48c0.45,0.03,0.78,0.42,0.75,0.86C1363.41,660.9,1363.05,661.23,1362.63,661.23z"/>
		<path class="st1" d="M1338.75,669.59c-0.39,0-0.74-0.29-0.8-0.68c-0.07-0.44,0.23-0.85,0.67-0.92c1.01-0.16,18.93-1.34,20.97-1.47
			c0.45-0.03,0.83,0.31,0.86,0.75s-0.31,0.83-0.75,0.86c-7.98,0.53-20.11,1.35-20.82,1.46
			C1338.83,669.59,1338.79,669.59,1338.75,669.59z"/>
	</g>
	<g>
		<path class="st2" d="M1211.73,578.52l-18.16,1.82c-3.64,0.37-6.61-2.86-5.94-6.46c3.16-17.07,9.25-60.25-4.61-82.8
			c8.47-0.71,23.09-4.14,23.09-4.14l10.51,85.45C1217,575.45,1214.79,578.21,1211.73,578.52z"/>
		<path class="st1" d="M1193,581.18c-1.75,0-3.41-0.72-4.62-2.03c-1.35-1.47-1.92-3.44-1.56-5.41c1.44-7.77,3.88-23.2,4.06-39.21
			c0.22-18.94-2.66-33.41-8.56-43.02c-0.15-0.24-0.16-0.54-0.03-0.79s0.37-0.42,0.65-0.44c8.31-0.7,22.83-4.09,22.98-4.12
			c0.22-0.05,0.46-0.01,0.65,0.12c0.19,0.13,0.31,0.34,0.34,0.56l10.51,85.45c0.21,1.7-0.26,3.36-1.33,4.7
			c-1.07,1.33-2.59,2.16-4.29,2.33l-18.16,1.82C1193.43,581.17,1193.22,581.18,1193,581.18z M1184.36,491.76
			c13.12,22.99,7.24,65.05,4.06,82.27c-0.27,1.46,0.15,2.93,1.16,4.02c1.01,1.09,2.43,1.63,3.91,1.49l18.16-1.82
			c1.26-0.13,2.4-0.74,3.19-1.73c0.79-0.99,1.14-2.23,0.99-3.49l-10.4-84.56C1202.31,488.63,1191.64,490.99,1184.36,491.76z
			 M1211.73,578.52L1211.73,578.52L1211.73,578.52z"/>
	</g>
	<g>
		<g>
			<path class="st2" d="M1213.76,525.7c4.94-0.45,6.47-2.32,6.65-4.25c0.25-2.65-2.08-4.83-4.72-4.56l-30.97,3.2
				c-6.39,1.58-2.65,8.53-2.65,8.53c-4.86,0.83-8.49,7.9-2.44,10.37c-3.98-0.08-6.62,5.52-0.96,8.11
				c-8.03,2.33-3.29,10.72,1.2,10.37c3.85-0.3,37.02-4.22,36.55-9.85c-0.34-4.12-6.63-3.94-6.63-3.94s12.34-1.17,11.09-5.91
				c-0.63-2.36-7.77-3.61-7.77-3.61s9.36-2.11,8.34-5.09C1220.25,525.53,1213.76,525.7,1213.76,525.7z"/>
			<path class="st1" d="M1179.6,558.29c-2.69,0-5.44-2.49-5.99-5.52c-0.46-2.51,0.73-4.6,3.22-5.83c-1.5-1.13-2.59-2.83-2.1-4.96
				c0.34-1.5,1.38-2.72,2.73-3.34c-1.33-1.11-1.96-2.62-1.77-4.36c0.29-2.7,2.56-5.29,5.25-6.2c-0.52-1.31-1.23-3.76-0.32-5.83
				c0.65-1.47,1.96-2.45,3.91-2.94c0.04-0.01,0.07-0.02,0.11-0.02l30.97-3.2c1.54-0.16,3.06,0.38,4.16,1.47
				c1.06,1.05,1.59,2.5,1.45,3.97c-0.19,1.99-1.46,3.21-3.09,3.96c1.74,0.52,3.47,1.5,4.09,3.33c0.21,0.62,0.14,1.26-0.19,1.86
				c-0.85,1.53-3.52,2.69-5.69,3.42c2.24,0.66,4.88,1.79,5.32,3.47c0.25,0.96,0.08,1.91-0.49,2.73c-1.23,1.77-4.21,2.83-6.82,3.44
				c1.44,0.66,2.71,1.8,2.88,3.81c0.06,0.66-0.18,1.31-0.7,1.92c-4.78,5.61-36.28,8.78-36.59,8.8
				C1179.83,558.28,1179.71,558.29,1179.6,558.29z M1179.55,539.79c-1.53,0-2.92,1.08-3.25,2.54c-0.37,1.6,0.62,3.07,2.71,4.02
				c0.31,0.14,0.49,0.46,0.47,0.79s-0.26,0.62-0.58,0.72c-2.78,0.81-4.09,2.44-3.69,4.6c0.42,2.3,2.66,4.33,4.61,4.19
				c5.38-0.42,31.79-3.89,35.49-8.24c0.35-0.41,0.33-0.65,0.32-0.74c-0.28-3.32-5.75-3.19-5.8-3.19c-0.43,0.02-0.8-0.32-0.83-0.76
				c-0.03-0.44,0.3-0.81,0.73-0.85c2.29-0.22,8.57-1.27,10.13-3.5c0.31-0.44,0.39-0.89,0.25-1.39c-0.2-0.75-2.6-2.23-7.12-3.02
				c-0.38-0.07-0.66-0.39-0.67-0.78c-0.01-0.38,0.25-0.72,0.63-0.81c2.54-0.57,6.86-2.03,7.68-3.49c0.14-0.26,0.12-0.42,0.07-0.55
				c-0.83-2.44-5.27-2.87-6.91-2.83c-0.43,0.02-0.8-0.33-0.83-0.76c-0.03-0.43,0.3-0.81,0.73-0.85c3.74-0.34,5.73-1.53,5.92-3.53
				c0.09-0.98-0.26-1.96-0.98-2.67c-0.76-0.75-1.8-1.12-2.85-1.01l-30.91,3.2c-1.42,0.36-2.32,1.02-2.76,2
				c-0.97,2.19,0.67,5.31,0.68,5.34c0.12,0.23,0.13,0.5,0.01,0.74c-0.11,0.23-0.33,0.4-0.59,0.44c-2.41,0.41-4.66,2.72-4.91,5.04
				c-0.19,1.7,0.73,3.01,2.64,3.79c0.36,0.15,0.57,0.53,0.49,0.91c-0.08,0.38-0.41,0.66-0.81,0.64
				C1179.59,539.8,1179.57,539.79,1179.55,539.79z"/>
		</g>
		<path class="st1" d="M1188.97,538.58c-0.39,0-0.74-0.29-0.8-0.69c-0.07-0.44,0.24-0.85,0.68-0.92l24.14-3.6
			c0.44-0.06,0.85,0.24,0.92,0.68c0.07,0.44-0.24,0.85-0.68,0.92l-24.14,3.6C1189.05,538.57,1189.01,538.58,1188.97,538.58z"/>
		<path class="st1" d="M1189.96,530.15c-0.39,0-0.74-0.29-0.8-0.69c-0.07-0.44,0.24-0.85,0.68-0.92l24.14-3.6
			c0.44-0.06,0.85,0.24,0.92,0.68c0.07,0.44-0.24,0.85-0.68,0.92l-24.14,3.6C1190.04,530.15,1190,530.15,1189.96,530.15z"/>
		<path class="st1" d="M1186.15,547.93c-0.39,0-0.74-0.29-0.8-0.69c-0.07-0.44,0.24-0.85,0.68-0.92l24.14-3.6
			c0.44-0.06,0.85,0.24,0.92,0.68c0.07,0.44-0.24,0.85-0.68,0.92l-24.14,3.6C1186.23,547.92,1186.19,547.93,1186.15,547.93z"/>
	</g>
	<g>
		<path class="st2" d="M1198.04,455.65c0,0-54.48,5.53-74.81-26l4.05,54.26l5.47,55.88c14.55-34.57,69.17-38.57,69.17-38.57
			L1198.04,455.65z"/>
		<path class="st1" d="M1132.76,540.6c-0.04,0-0.08,0-0.12-0.01c-0.37-0.06-0.65-0.35-0.68-0.72l-5.47-55.88l-4.06-54.28
			c-0.03-0.37,0.2-0.71,0.55-0.83c0.35-0.12,0.74,0.02,0.94,0.33c4.55,7.06,11.25,12.8,19.92,17.06c6.97,3.43,15.22,5.91,24.51,7.39
			c15.88,2.52,29.48,1.19,29.61,1.18c0.22-0.02,0.43,0.04,0.6,0.18c0.17,0.14,0.27,0.34,0.29,0.55l3.88,45.58
			c0.02,0.22-0.05,0.43-0.19,0.59c-0.14,0.16-0.34,0.27-0.56,0.28c-0.14,0.01-13.76,1.06-28.96,6.29
			c-8.9,3.06-16.59,6.94-22.86,11.52c-7.8,5.7-13.4,12.52-16.66,20.26C1133.37,540.41,1133.08,540.6,1132.76,540.6z M1124.26,432.55
			l3.83,51.3l5.17,52.9c3.48-6.9,8.83-13.02,15.96-18.22c6.41-4.68,14.25-8.63,23.31-11.75c13.26-4.56,25.33-5.98,28.52-6.29
			l-3.75-43.98c-3.2,0.25-15.33,0.94-29.17-1.25c-9.46-1.5-17.87-4.03-24.99-7.53C1135.22,443.84,1128.89,438.74,1124.26,432.55z"/>
	</g>
	<g>
		<polygon class="st0" points="1198.04,455.65 1217.23,450.75 1221.69,500.72 1201.93,501.23 		"/>
		<path class="st1" d="M1201.93,502.04c-0.42,0-0.77-0.32-0.81-0.74l-3.88-45.58c-0.03-0.39,0.22-0.75,0.61-0.85l19.19-4.89
			c0.23-0.06,0.47-0.01,0.67,0.12c0.19,0.14,0.32,0.35,0.34,0.59l4.46,49.97c0.02,0.22-0.05,0.44-0.2,0.61s-0.36,0.26-0.58,0.27
			l-19.76,0.51C1201.94,502.04,1201.93,502.04,1201.93,502.04z M1198.91,456.26l3.76,44.14l18.14-0.46l-4.3-48.17L1198.91,456.26z"
			/>
	</g>
	<path class="st1" d="M1208.43,502.42l-18.06,10.72c0,0-2.41-9.75-2.27-9.78S1201.69,500.33,1208.43,502.42z"/>
	<g>
		<path class="st0" d="M1131.27,541.25c-7.16,0.6-15.07-24.22-17.69-55.45c-2.61-31.22,1.07-57.01,8.22-57.61
			c6.41-0.54,13.43,19.32,16.7,45.91c0.38,3.1,0.71,6.28,0.98,9.54c0.27,3.26,0.48,6.45,0.62,9.57
			C1141.3,519.96,1137.68,540.72,1131.27,541.25z"/>
		<path class="st1" d="M1131.01,542.07c-4.81,0-8.66-8.85-11.06-16.36c-3.36-10.53-5.91-24.68-7.17-39.84
			c-1.27-15.16-1.11-29.53,0.45-40.47c1.14-7.99,3.54-17.6,8.51-18.02c8.05-0.68,14.75,23.69,17.57,46.62
			c0.39,3.12,0.72,6.34,0.99,9.57c0.27,3.22,0.48,6.45,0.62,9.6c1.03,23.07-1.53,48.21-9.58,48.89
			C1131.23,542.07,1131.12,542.07,1131.01,542.07z M1131.2,540.45l0.07,0.81L1131.2,540.45c4.99-0.42,9.39-18.19,8.1-47.21
			c-0.14-3.13-0.35-6.34-0.61-9.54c-0.27-3.2-0.6-6.4-0.98-9.51c-1.59-12.9-4.12-24.6-7.13-32.95c-4.1-11.37-7.45-12.36-8.7-12.25
			c-2.96,0.25-5.59,6.47-7.04,16.63c-1.54,10.82-1.7,25.07-0.44,40.11c1.26,15.04,3.78,29.06,7.1,39.48
			C1124.61,535,1128.24,540.69,1131.2,540.45z"/>
	</g>
	<g>
		<path class="st2" d="M1140.11,493.21c-2.18,2.03-5.1,3.27-8.31,3.27c-6.73,0-12.19-5.46-12.19-12.19
			c0-6.73,5.46-12.19,12.19-12.19c2.48,0,4.78,0.74,6.71,2.01c0.38,3.1,0.71,6.28,0.98,9.54
			C1139.76,486.89,1139.97,490.09,1140.11,493.21z"/>
		<path class="st1" d="M1131.8,497.28c-7.17,0-13-5.83-13-13c0-7.17,5.83-13,13-13c2.56,0,5.03,0.74,7.15,2.14
			c0.2,0.13,0.33,0.34,0.36,0.58c0.39,3.12,0.72,6.34,0.99,9.57c0.27,3.22,0.48,6.45,0.62,9.6c0.01,0.24-0.08,0.47-0.26,0.63
			C1138.24,496.04,1135.1,497.28,1131.8,497.28z M1131.8,472.9c-6.28,0-11.38,5.11-11.38,11.38c0,6.28,5.11,11.38,11.38,11.38
			c2.76,0,5.4-0.99,7.48-2.8c-0.14-3.01-0.34-6.09-0.6-9.15c-0.26-3.08-0.57-6.14-0.93-9.13
			C1135.97,473.48,1133.92,472.9,1131.8,472.9z"/>
	</g>
	<path class="st1" d="M1401.23,728.44c-0.17,0-0.34-0.05-0.49-0.17l-21.5-16.46c-0.31-0.24-0.41-0.67-0.22-1.02l3-5.67
		c0.21-0.39,0.7-0.55,1.09-0.34c0.39,0.21,0.55,0.7,0.34,1.09l-2.68,5.07l20.96,16.05c0.35,0.27,0.42,0.78,0.15,1.13
		C1401.72,728.33,1401.47,728.44,1401.23,728.44z"/>
	<path class="st1" d="M1183.02,597.19c-0.4,0-0.74-0.29-0.8-0.7c-0.06-0.44,0.25-0.85,0.69-0.91l41.02-5.75
		c0.44-0.06,0.85,0.25,0.91,0.69c0.06,0.44-0.25,0.85-0.69,0.91l-41.02,5.75C1183.09,597.19,1183.06,597.19,1183.02,597.19z"/>
	<path class="st1" d="M1392.31,713.58c-0.07,0-0.14-0.01-0.2-0.03c-0.29-0.08-0.52-0.28-0.65-0.56c-0.25-0.57-0.66-1.53,6.42-15.43
		c3.42-6.71,6.99-13.28,7.03-13.34c0.21-0.39,0.7-0.54,1.1-0.32c0.39,0.21,0.54,0.7,0.32,1.1c-8.51,15.65-13.15,25.58-13.35,27.34
		c0.12,0.19,0.17,0.42,0.11,0.66C1393,713.34,1392.67,713.58,1392.31,713.58z M1392.97,712.46L1392.97,712.46L1392.97,712.46z"/>
	<path class="st1" d="M1394.55,437.83c-9.44,0-19.36-1-29.02-2.2c-3.36-0.42-5.41-1.82-6.1-4.18c-2.09-7.15,9.8-20.63,15.11-25.04
		c7.19-5.98,15.8-12.52,25.13-15.72c5.76-1.98,11.96-3.68,18.24-2.78c2.31,0.33,3.98,0.98,5.25,2.04c1.92,1.6,2.82,4.04,2.59,7.03
		c-0.13,1.73-0.65,3.64-1.48,5.46c1.26,0.33,2.46,0.73,3.58,1.22c4.31,1.86,7.24,4.82,8.5,8.55c2.24,6.65-1.68,13.59-6.27,17.22
		c-5.16,4.09-11.72,5.67-17.46,6.82C1406.96,437.38,1400.86,437.83,1394.55,437.83z M1414.37,389.27c-4.84,0-9.64,1.38-14.17,2.94
		c-9.08,3.12-17.54,9.55-24.62,15.44c-5.85,4.86-16.3,17.5-14.59,23.34c0.5,1.7,2.05,2.69,4.75,3.03
		c15.97,1.98,32.67,3.43,46.56,0.63l0.16,0.79l-0.16-0.79c5.56-1.12,11.89-2.64,16.78-6.5c4.16-3.3,7.73-9.53,5.75-15.44
		c-1.1-3.28-3.74-5.9-7.61-7.58c-1.14-0.49-2.38-0.9-3.68-1.22c-0.11,0.19-0.21,0.38-0.33,0.56c-4.04,6.7-10.49,12.13-18.17,15.29
		c-7.68,3.16-16.09,3.85-23.67,1.93c-0.33-0.08-0.58-0.37-0.61-0.71c-0.33-3.68,2.06-7.34,6.92-10.58
		c8.22-5.47,17.77-8.55,27.64-8.91c2.51-0.09,5.01,0.11,7.35,0.57c1.83-3.85,2.35-8.48-0.54-10.89c-1.03-0.86-2.44-1.39-4.44-1.68
		C1416.58,389.34,1415.48,389.27,1414.37,389.27z M1382.34,420.27c7.1,1.65,14.91,0.95,22.08-2c7.36-3.03,13.55-8.23,17.4-14.63
		c0.02-0.03,0.03-0.05,0.05-0.08c-2.07-0.37-4.27-0.53-6.49-0.45c-9.57,0.35-18.83,3.33-26.8,8.64
		C1385.69,413.67,1382.36,416.67,1382.34,420.27z"/>
	<path class="st1" d="M1194.21,503.1c-0.41,0-0.77-0.31-0.8-0.73l-4.25-46.28c-0.04-0.44,0.29-0.84,0.73-0.88
		c0.45-0.04,0.84,0.29,0.88,0.73l4.25,46.28c0.04,0.44-0.29,0.84-0.73,0.88C1194.26,503.1,1194.23,503.1,1194.21,503.1z"/>
	<path class="st1" d="M1218.38,463.6l9.49,23.34c0,0-5.09,2.46-7.41,0L1218.38,463.6z"/>
</g>
<g>
	<polygon class="st1" points="1402.3,739.54 1274.36,747.38 1403.14,747.38 	"/>
	<path class="st1" d="M1403.14,748.19h-128.78c-0.44,0-0.79-0.35-0.81-0.78c-0.01-0.44,0.32-0.8,0.76-0.83l127.93-7.83
		c0.43-0.03,0.81,0.29,0.85,0.72l0.84,7.83c0.02,0.23-0.05,0.46-0.2,0.63C1403.58,748.09,1403.37,748.19,1403.14,748.19z
		 M1300.78,746.57h101.46l-0.66-6.17L1300.78,746.57z"/>
</g>
<g>
	<path class="st0" d="M1508.08,650.98c-20.24,0-36.65,16.41-36.65,36.65c0,3.84,0.59,7.54,1.69,11.02l-13.14,20.87l24.52-3.85
		c6.38,5.37,14.6,8.6,23.59,8.6c20.24,0,36.65-16.41,36.65-36.65C1544.73,667.39,1528.33,650.98,1508.08,650.98z"/>
	<g>
		<path class="st2" d="M1525.74,677.38c-6.68-10.66-17.16-2.23-17.16-2.23s-10.48-8.43-17.16,2.23
			c-8.25,13.15,17.16,28.97,17.16,28.97S1533.98,690.53,1525.74,677.38z"/>
		<path class="st1" d="M1508.58,707.16c-0.15,0-0.3-0.04-0.43-0.12c-0.67-0.41-16.33-10.28-18.85-21.18
			c-0.74-3.21-0.26-6.21,1.43-8.91c2.02-3.22,4.59-5.12,7.63-5.63c4.57-0.77,8.78,1.82,10.21,2.83c1.43-1,5.65-3.59,10.21-2.83
			c3.04,0.51,5.61,2.41,7.63,5.63l0,0c1.69,2.7,2.17,5.7,1.43,8.91c-2.51,10.89-18.18,20.76-18.85,21.18
			C1508.87,707.12,1508.72,707.16,1508.58,707.16z M1500.05,672.8c-0.47,0-0.95,0.04-1.43,0.12c-2.56,0.43-4.76,2.08-6.52,4.89
			c-1.46,2.32-1.87,4.91-1.23,7.69c2.14,9.29,15.16,18.23,17.7,19.89c2.54-1.67,15.56-10.61,17.7-19.89
			c0.64-2.78,0.23-5.37-1.23-7.69l0,0c-1.76-2.81-3.96-4.46-6.52-4.89c-4.79-0.81-9.4,2.83-9.45,2.87c-0.3,0.24-0.72,0.24-1.01,0
			C1508.03,675.75,1504.29,672.8,1500.05,672.8z"/>
	</g>
	<path class="st1" d="M1459.98,720.33c-0.25,0-0.5-0.12-0.65-0.33c-0.2-0.27-0.21-0.63-0.03-0.91l9.81-15.58
		c0.24-0.38,0.74-0.49,1.11-0.25c0.38,0.24,0.49,0.74,0.25,1.11l-8.72,13.84l9.2-2.43c0.43-0.11,0.87,0.14,0.99,0.58
		c0.11,0.43-0.14,0.87-0.58,0.99l-11.18,2.95C1460.11,720.32,1460.04,720.33,1459.98,720.33z"/>
</g>
<path class="st1" d="M1096.28,534.22c-0.14,0-0.27-0.03-0.4-0.11c-0.38-0.22-0.52-0.69-0.32-1.08l0.41-0.79
	c0.06-0.11,0.13-0.2,0.22-0.27c2.16-3.65,4.38-8.29,4.27-13.24c-0.14-6.84-5.63-15.22-15.85-18.25c-9.81,6.5-18.89,8.96-27.04,7.31
	c-3.19-0.65-4.38-2.52-4.14-4.08c0.32-2.1,2.84-2.83,3.67-3.07c7.68-2.23,17.69-4.46,27.22-1.92c0.5-0.34,1-0.69,1.5-1.05
	c3.07-2.2,6.17-4.7,8.04-8.1c1.96-3.56,2.05-7.66,0.21-10.46c-0.44-0.67-0.98-1.27-1.61-1.79c-6.8,2.44-14.09,3.32-21.3,2.55
	c-0.32-0.03-0.81-0.09-1.24-0.37c-0.53-0.35-0.81-0.89-0.8-1.53c0.02-1.1,0.93-2.2,1.82-2.73c3.27-1.95,7.23-2.28,10.32-2.35
	c4.96-0.11,8.8,0.77,11.47,2.61c0.84-0.32,1.67-0.66,2.5-1.03c2.01-0.9,4.42-2.22,5.22-4.45c0.55-1.53,0.26-3.47-0.79-5.32
	c-3.14-5.55-10.43-7.24-15.64-8.03c-4.28-0.65-8.84-1.07-13.1,0.23c-0.43,0.13-0.88-0.11-1.01-0.54c-0.13-0.43,0.11-0.88,0.54-1.01
	c4.58-1.4,9.55-0.93,13.81-0.29c5.54,0.84,13.32,2.67,16.8,8.83c1.28,2.26,1.6,4.68,0.9,6.66c-1,2.81-3.77,4.35-6.08,5.39
	c-0.57,0.26-1.15,0.5-1.73,0.74c0.47,0.47,0.9,0.99,1.26,1.55c2.16,3.29,2.1,8.05-0.15,12.13c-2.04,3.69-5.45,6.43-8.52,8.63
	c-0.16,0.11-0.32,0.23-0.48,0.34c7.97,2.84,15.6,10.08,15.79,19.37c0.12,5.85-2.67,11.16-5.12,15.13
	C1096.81,534.09,1096.55,534.22,1096.28,534.22z M1075.22,499.22c-6.34,0-12.53,1.49-17.66,2.99c-1.59,0.46-2.42,1.04-2.53,1.76
	c-0.18,1.18,1.66,2.01,2.86,2.25c7.37,1.49,15.63-0.61,24.58-6.27C1080.07,499.43,1077.64,499.22,1075.22,499.22z M1082.09,474.52
	c-0.26,0-0.52,0-0.78,0.01c-2.89,0.06-6.58,0.36-9.52,2.12c-0.58,0.35-1.02,1.01-1.03,1.38c0,0.08,0.01,0.1,0.07,0.14
	c0.1,0.07,0.35,0.09,0.52,0.11c6.56,0.7,13.19-0.01,19.43-2.06C1088.6,475.09,1085.7,474.52,1082.09,474.52z"/>
<circle class="st1" cx="1065.13" cy="459.68" r="4.25"/>
<circle class="st1" cx="1087.76" cy="552.36" r="4.25"/>
<polygon class="st1" points="1414.03,502.2 1412.71,509.36 1627.2,502.2 "/>
<g>
	<path class="st0" d="M1086.69,607.19l-0.94,10.18c-0.12,1.26,0.81,2.28,2.07,2.28h5.66c1,0,1.82,0.65,2.03,1.61
		c0.39,1.79,0.95,3.5,1.66,5.13c0.39,0.89,0.13,1.97-0.65,2.68l-4.38,4.01c-0.97,0.89-1.1,2.33-0.3,3.22l6.54,7.2
		c0.81,0.89,2.25,0.89,3.22,0l4.38-4.01c0.77-0.71,1.87-0.87,2.72-0.4c1.55,0.86,3.2,1.57,4.94,2.13c0.93,0.3,1.5,1.17,1.41,2.17
		l-0.52,5.66c-0.12,1.26,0.81,2.28,2.07,2.28h10.18c1.26,0,2.37-1.02,2.48-2.28l0.52-5.66c0.09-1,0.83-1.88,1.81-2.17
		c1.84-0.55,3.62-1.27,5.33-2.13c0.93-0.47,2-0.31,2.64,0.4l3.64,4.01c0.81,0.89,2.25,0.89,3.22,0l7.86-7.2
		c0.97-0.89,1.1-2.33,0.3-3.22l-3.64-4.01c-0.64-0.71-0.7-1.79-0.15-2.68c1.01-1.63,1.88-3.35,2.6-5.13
		c0.38-0.96,1.32-1.61,2.32-1.61h5.66c1.26,0,2.37-1.02,2.48-2.28l0.94-10.18c0.12-1.26-0.81-2.28-2.07-2.28h-5.66
		c-1,0-1.82-0.65-2.03-1.61c-0.39-1.79-0.95-3.5-1.65-5.13c-0.39-0.89-0.13-1.97,0.65-2.68l4.38-4.01c0.97-0.89,1.1-2.33,0.3-3.22
		l-6.54-7.2c-0.81-0.89-2.25-0.89-3.22,0l-4.38,4.01c-0.77,0.71-1.87,0.87-2.72,0.4c-1.55-0.86-3.2-1.57-4.94-2.13
		c-0.93-0.3-1.5-1.17-1.41-2.17l0.52-5.66c0.12-1.26-0.81-2.28-2.07-2.28h-10.18c-1.26,0-2.37,1.02-2.48,2.28l-0.52,5.66
		c-0.09,1-0.83,1.88-1.81,2.17c-1.84,0.55-3.62,1.27-5.33,2.13c-0.93,0.47-2,0.31-2.64-0.4l-3.64-4.01c-0.81-0.89-2.25-0.89-3.22,0
		l-7.86,7.2c-0.97,0.89-1.1,2.33-0.3,3.22l3.64,4.01c0.64,0.71,0.7,1.79,0.15,2.68c-1.01,1.63-1.88,3.35-2.6,5.13
		c-0.38,0.96-1.32,1.61-2.32,1.61h-5.66C1087.91,604.91,1086.8,605.93,1086.69,607.19z M1106.43,612.28
		c0.96-10.4,10.17-18.84,20.57-18.84c10.4,0,18.06,8.43,17.1,18.84c-0.96,10.4-10.17,18.84-20.57,18.84
		C1113.13,631.12,1105.47,622.68,1106.43,612.28z"/>
	
		<ellipse transform="matrix(0.7232 -0.6906 0.6906 0.7232 -111.1169 946.5615)" class="st0" cx="1125.3" cy="611.9" rx="7.59" ry="6.92"/>
</g>
<g>
	<g>
		<path class="st2" d="M1576.1,310.85h-73.98c-1.92,0-3.57,1.36-3.95,3.24l-6.99,35.3c-0.49,2.49,1.41,4.81,3.95,4.81h29.34
			l-2.39,22.54l19.46-22.54h27.57c1.92,0,3.57-1.36,3.95-3.24l6.99-35.3C1580.54,313.17,1578.63,310.85,1576.1,310.85z"/>
		<path class="st1" d="M1522.07,377.55c-0.11,0-0.22-0.02-0.32-0.07c-0.32-0.14-0.52-0.48-0.48-0.83l2.3-21.64h-28.44
			c-1.45,0-2.81-0.64-3.73-1.77c-0.92-1.12-1.29-2.58-1.01-4.01l6.99-35.3c0.45-2.26,2.44-3.89,4.74-3.89h73.98
			c1.45,0,2.81,0.64,3.73,1.77c0.92,1.12,1.29,2.58,1.01,4.01l-6.99,35.3c-0.45,2.26-2.44,3.89-4.74,3.89h-27.2l-19.22,22.26
			C1522.52,377.45,1522.3,377.55,1522.07,377.55z M1502.12,311.66c-1.53,0-2.86,1.09-3.16,2.59l-6.99,35.3
			c-0.19,0.95,0.06,1.92,0.67,2.67c0.61,0.75,1.52,1.18,2.49,1.18h29.34c0.23,0,0.45,0.1,0.6,0.27c0.15,0.17,0.23,0.4,0.2,0.63
			l-2.12,19.97l17.77-20.58c0.15-0.18,0.38-0.28,0.61-0.28h27.57c1.53,0,2.86-1.09,3.16-2.59l6.99-35.3
			c0.19-0.95-0.06-1.92-0.67-2.67c-0.61-0.75-1.52-1.18-2.49-1.18H1502.12z"/>
	</g>
	<g>
		<circle class="st0" cx="1513.84" cy="331.99" r="6.54"/>
		<circle class="st0" cx="1535.61" cy="331.99" r="6.54"/>
		<circle class="st0" cx="1557.38" cy="331.99" r="6.54"/>
	</g>
</g>
<g>
	<polygon class="st0" points="380.11,746.69 376.19,760.78 468,760.78 468,747.32 	"/>
</g>
<g>
	<path class="st0" d="M539.58,395.97c-0.16,3.27-0.03,6.54-0.76,9.8c-0.44,1.97-1.15,3.86-1.58,5.83c-0.03,0.13-0.05,0.21-0.06,0.25
		c-0.01,0.09-0.03,0.21-0.05,0.35c-0.07,0.47-0.14,0.94-0.21,1.41c-0.13,0.93-0.25,1.86-0.37,2.8c-0.99,7.72-2.09,15.17-5.36,22.25
		c0.68,0.47,1.39,0.87,2.13,1.2c1.56,0.7,3.23,1.08,4.96,1.08c8.93,0,16.17-10.09,16.17-22.53
		C554.45,406.58,547.9,396.89,539.58,395.97z"/>
</g>
<g>
	<polygon class="st1" points="439.23,426.8 418.97,488.99 452.11,488.99 454.88,447.05 	"/>
</g>
<g>
	<path class="st1" d="M537.12,418.42l14.19,77.2h-42.97l-2.59-13.26C505.75,482.36,534.59,469.4,537.12,418.42z"/>
</g>
<g>
	<path class="st1" d="M464.8,414.6c4.99-0.03,9.22-2.54,10.82-16.39c0.47-4.04,10.04-11.58,14.19-11.3
		c4.22,0.28,8.84,12.13,14.57,13.18c4.98,0.92,30.31,2.86,45.76,2.53c5.01-18.47-4.03-62.69-68.09-54.72
		c-19.14-9.6-34.9,14.67-34.64,30.29c0.25,15.35,2.84,25.22,2.84,25.22S459.02,406.13,464.8,414.6z"/>
</g>
<g>
	<path class="st1" d="M454.88,454.78c-0.51,0-0.98-0.31-1.15-0.81c-0.53-1.54-0.57-3.58-0.61-5.55c-0.02-0.95-0.04-1.85-0.11-2.63
		c-1.56-0.42-5.04-1.57-8.79-4.07c-4.59-3.06-10.44-8.82-12.28-18.87c-1-5.48-0.42-10.35,1.69-14.09c1.95-3.47,5.15-5.85,9.03-6.7
		c4.86-1.07,10.32,0.33,14.99,3.85c5.26,3.96,9.22,10.26,11.46,18.2c0.18,0.63-0.2,1.28-0.85,1.45c-0.64,0.17-1.31-0.2-1.49-0.83
		c-2.65-9.41-7.23-14.42-10.6-16.96c-4.1-3.09-8.82-4.33-12.97-3.42c-7.11,1.57-10.59,8.66-8.87,18.08
		c1.35,7.39,5.11,13.21,11.18,17.29c4.57,3.07,8.81,3.96,8.85,3.96c0.49,0.1,0.87,0.48,0.95,0.96c0.18,1.08,0.21,2.36,0.23,3.72
		c0.04,1.79,0.07,3.65,0.48,4.85c0.21,0.62-0.13,1.29-0.76,1.49C455.14,454.76,455.01,454.78,454.88,454.78z"/>
</g>
<g>
	<path class="st1" d="M504.3,483.63c-4.52,0-17.52-1.89-30.46-21.57c-0.36-0.55-0.2-1.28,0.37-1.63c0.56-0.35,1.31-0.19,1.67,0.36
		c7.73,11.76,15.4,16.68,20.48,18.74c5.01,2.03,8.53,1.75,9.11,1.68c5.5-1.84,10.22-5.59,14.02-11.15
		c17.16-25.14,17.58-67.65,17.58-68.07c0-0.65,0.54-1.17,1.21-1.17c0,0,0,0,0.01,0c0.67,0,1.21,0.53,1.2,1.19
		c0,0.11-0.08,11-2.32,24.89c-2.07,12.86-6.47,31.01-15.67,44.48c-4.13,6.05-9.3,10.12-15.37,12.12c-0.06,0.02-0.12,0.04-0.19,0.05
		C505.84,483.54,505.26,483.63,504.3,483.63z"/>
</g>
<g>
	<path class="st1" d="M452.12,502.87c-0.02,0-0.05,0-0.07,0c-0.67-0.04-1.18-0.59-1.14-1.24l2.76-48.09
		c0.04-0.65,0.61-1.15,1.28-1.11c0.67,0.04,1.18,0.59,1.14,1.24l-2.76,48.09C453.29,502.38,452.75,502.87,452.12,502.87z"/>
</g>
<g>
	<path class="st1" d="M519.04,451.85c-0.09,0-0.18-0.01-0.27-0.03l-10.83-2.46c-0.65-0.15-1.06-0.78-0.9-1.42
		c0.15-0.63,0.8-1.03,1.45-0.88l9.04,2.06c-3-17.56-1.97-36.6-1.96-36.8c0.04-0.65,0.6-1.15,1.28-1.11
		c0.67,0.04,1.18,0.59,1.14,1.24c-0.01,0.2-1.1,20.27,2.24,38.01c0.07,0.39-0.06,0.79-0.35,1.07
		C519.65,451.74,519.35,451.85,519.04,451.85z"/>
</g>
<g>
	<ellipse class="st1" cx="525.63" cy="422.61" rx="4.3" ry="4.19"/>
</g>
<g>
	<ellipse class="st1" cx="498.93" cy="416.53" rx="4.3" ry="4.19"/>
</g>
<g>
	<path class="st1" d="M508.34,408.27c-0.3,0-0.6-0.11-0.84-0.33c-0.36-0.33-8.77-8-16.89-1.13c-0.5,0.43-1.27,0.37-1.71-0.12
		c-0.44-0.49-0.38-1.24,0.12-1.67c9.8-8.29,20.05,1.11,20.15,1.21c0.48,0.45,0.5,1.2,0.03,1.67
		C508.97,408.14,508.66,408.27,508.34,408.27z"/>
</g>
<g>
	<path class="st1" d="M544.36,416.87c-0.47,0-0.92-0.27-1.12-0.72c-4.17-9.67-15.19-6.43-15.66-6.28c-0.64,0.19-1.32-0.15-1.52-0.77
		c-0.2-0.62,0.15-1.28,0.79-1.48c0.14-0.04,13.59-4.05,18.62,7.62c0.26,0.6-0.03,1.29-0.65,1.55
		C544.68,416.84,544.52,416.87,544.36,416.87z"/>
</g>
<g>
	<path class="st0" d="M454.88,497.45l24.88,48.47l28.58-50.3l17.29,21.04l14.96,6.7c0,0,26.76,7.88,36.86,28.58l38.45,158.54
		l-65.83,0.88l8.85,35.63H376.95c0,0-72.99-3.81-53.56-79.55l43.75-128.75c0,0,10.07-18.49,53.54-20.66l16.72-4.36L454.88,497.45z"
		/>
</g>
<g>
	<defs>
		<path id="SVGID_1_" d="M454.88,497.45l24.88,48.47l28.58-50.3l17.29,21.04l14.96,6.7c0,0,26.76,7.88,36.86,28.58l38.45,158.54
			l-65.83,0.88l8.85,35.63H376.95c0,0-72.99-3.81-53.56-79.55l43.75-128.75c0,0,10.07-18.49,53.54-20.66l16.72-4.36L454.88,497.45z"
			/>
	</defs>
	<clipPath id="SVGID_00000135686184335693393190000003589993129057039002_">
		<use xlink:href="#SVGID_1_"  style="overflow:visible;"/>
	</clipPath>
	<g style="clip-path:url(#SVGID_00000135686184335693393190000003589993129057039002_);">
		<path class="st2" d="M310.19,710.06c-0.09,0-0.18-0.01-0.28-0.03c-5.56-1.27-9.06-6.37-11.22-10.09
			c-17.27-29.85-11.63-70.69,13.13-95c9.94-9.76,22.32-16.81,34.29-23.63c4.2-2.39,8.55-4.87,12.71-7.42
			c14.83-9.08,28.57-19.87,40.84-32.05c7.04-6.99,15.77-16.51,20.73-28.14c8.38-19.6,4.49-40.57-0.25-54.71
			c-0.21-0.62,0.14-1.29,0.77-1.49c0.64-0.2,1.32,0.14,1.53,0.76c4.87,14.52,8.85,36.08,0.18,56.35
			c-5.13,12-14.04,21.74-21.24,28.88c-12.4,12.32-26.29,23.22-41.28,32.4c-4.2,2.57-8.56,5.05-12.78,7.46
			c-11.84,6.74-24.08,13.71-33.8,23.26c-24.03,23.59-29.5,63.22-12.74,92.18c1.93,3.34,5.04,7.9,9.67,8.96
			c0.65,0.15,1.05,0.78,0.9,1.42C311.24,709.7,310.74,710.06,310.19,710.06z"/>
	</g>
	<g style="clip-path:url(#SVGID_00000135686184335693393190000003589993129057039002_);">
		<path class="st2" d="M354.57,708.73c-9.25,0-19.07-0.75-29.59-2.23c-4.15-0.59-8.3-1.58-10.51-4.85
			c-0.37-0.54-0.21-1.28,0.34-1.64c0.56-0.36,1.31-0.21,1.68,0.34c1.68,2.49,5.24,3.31,8.84,3.82c23.04,3.26,42.71,2.92,60.14-1.06
			c21.03-4.8,39.02-15.3,50.67-29.55c5.4-6.6,10-14.53,14.91-25.69c0.23-0.52,0.45-1.03,0.67-1.55c-9.51-0.54-20.1-2.52-27.85-9.35
			c-4.64-4.09-7.68-9.5-9.81-13.76c-5.55-11.11-8.03-21.09-7.57-30.5c0.56-11.59,5.99-21.94,14.52-27.67
			c9.71-6.52,23.05-6.09,31.05,1.01c2.83,2.51,5.21,5.96,7.28,10.56c8.16,18.12,6.79,40.81-4.07,67.49
			c0.76,0.02,1.51,0.03,2.25,0.04c0.56,0.01,1.13,0.01,1.69,0.01c41.63,0,81.61-14.04,109.93-38.65
			c31.22-27.14,47.99-67.46,43.77-105.23c-0.07-0.65,0.41-1.23,1.07-1.3c0.66-0.07,1.26,0.4,1.33,1.05
			c4.31,38.51-12.76,79.61-44.56,107.24c-14.92,12.96-32.67,22.97-52.76,29.75c-19.26,6.49-39.61,9.68-60.49,9.49
			c-1.04-0.01-2.11-0.03-3.19-0.06c-0.33,0.79-0.68,1.58-1.02,2.37c-5.01,11.36-9.71,19.45-15.25,26.22
			c-11.99,14.67-30.46,25.46-52.01,30.38C376.27,707.62,365.85,708.73,354.57,708.73z M436.28,562.84c-4.82,0-9.77,1.37-13.89,4.14
			c-7.91,5.31-12.95,14.97-13.47,25.83c-0.44,9,1.96,18.61,7.33,29.35c2.03,4.07,4.92,9.22,9.25,13.04
			c7.44,6.56,17.91,8.34,27.2,8.79c10.9-26.41,12.39-48.75,4.42-66.45c-1.93-4.29-4.12-7.48-6.69-9.76
			C446.73,564.5,441.58,562.84,436.28,562.84z"/>
	</g>
	<g style="clip-path:url(#SVGID_00000135686184335693393190000003589993129057039002_);">
		<path class="st2" d="M583.57,780.46c-0.05,0-0.11,0-0.16-0.01c-10.85-1.42-21.05-6.59-29.5-14.94c-8-7.92-13.75-18.18-16.18-28.91
			c-4.53-19.97,0.74-42.84,14.46-62.73c10.81-15.67,26.42-29.69,49.15-44.13c7.7-4.9,16.97-10.41,27.31-14.15
			c0.63-0.23,1.32,0.08,1.56,0.7c0.23,0.61-0.09,1.29-0.71,1.52c-10.11,3.66-19.24,9.09-26.83,13.91
			c-22.44,14.27-37.84,28.08-48.46,43.47c-13.36,19.36-18.5,41.56-14.11,60.9c4.92,21.69,23.27,39.36,43.64,42.03
			c0.66,0.09,1.13,0.68,1.04,1.33C584.68,780.03,584.16,780.46,583.57,780.46z"/>
	</g>
</g>
<g>
	<ellipse class="st3" cx="482.93" cy="435.85" rx="10.12" ry="9.87"/>
</g>
<g>
	<ellipse class="st3" cx="535.79" cy="438.56" rx="10.12" ry="9.87"/>
</g>
<g>
	<path class="st1" d="M500.61,469.38c-0.04,0-0.08,0-0.12-0.01c-9.85-0.91-15.08-17.66-15.3-18.38c-0.16-0.53,0.08-1.1,0.58-1.37
		c0.5-0.27,1.12-0.16,1.5,0.26c10.27,11.5,23.61,5.78,24.17,5.53c0.61-0.27,1.32-0.01,1.6,0.58c0.28,0.59,0.01,1.29-0.6,1.56
		c-0.16,0.07-3.93,1.73-9.14,1.82c-3.83,0.06-9.01-0.74-13.98-4.4c2.13,4.77,6.07,11.55,11.4,12.04c0.67,0.06,1.15,0.64,1.09,1.29
		C501.75,468.93,501.23,469.38,500.61,469.38z"/>
</g>
<g>
	<g>
		<path class="st2" d="M412.85,760.78h165.17c3.72,0,6.73-3.01,6.73-6.73l0,0c0-3.72-3.01-6.73-6.73-6.73H412.85
			c-3.72,0-6.73,3.01-6.73,6.73l0,0C406.11,757.77,409.13,760.78,412.85,760.78z"/>
		<path class="st1" d="M577.85,761.96H413.01c-4.47,0-8.11-3.55-8.11-7.91c0-4.36,3.64-7.91,8.11-7.91h164.84
			c4.47,0,8.11,3.55,8.11,7.91C585.96,758.41,582.32,761.96,577.85,761.96z M413.01,748.5c-3.14,0-5.69,2.49-5.69,5.55
			s2.55,5.55,5.69,5.55h164.84c3.14,0,5.69-2.49,5.69-5.55s-2.55-5.55-5.69-5.55H413.01z"/>
	</g>
	<g>
		<path class="st2" d="M739.32,760.78H537.46l32.89-153.09c0.82-3.81,4.26-6.54,8.25-6.54h184.62c5.35,0,9.35,4.8,8.25,9.92
			L739.32,760.78z"/>
		<path class="st1" d="M739.32,761.96H537.46c-0.36,0-0.71-0.16-0.94-0.44c-0.23-0.28-0.32-0.64-0.25-0.99l32.89-153.09
			c0.93-4.33,4.9-7.48,9.44-7.48h184.62c2.92,0,5.65,1.27,7.49,3.48c1.84,2.21,2.55,5.08,1.95,7.86L740.5,761.02
			C740.38,761.57,739.89,761.96,739.32,761.96z M538.95,759.6h199.38l31.96-148.78c0.45-2.09-0.08-4.23-1.46-5.89
			s-3.42-2.6-5.61-2.6H578.6c-3.4,0-6.37,2.36-7.07,5.6L538.95,759.6z"/>
	</g>
	<g>
		<path class="st2" d="M751.08,760.78H549.23l32.89-153.09c0.82-3.81,4.26-6.54,8.25-6.54h184.62c5.35,0,9.35,4.8,8.25,9.92
			L751.08,760.78z"/>
		<path class="st1" d="M751.08,761.96H549.23c-0.36,0-0.71-0.16-0.94-0.44c-0.23-0.28-0.32-0.64-0.25-0.99l32.89-153.09
			c0.93-4.33,4.9-7.48,9.44-7.48h184.62c2.92,0,5.65,1.27,7.49,3.48c1.84,2.21,2.55,5.08,1.95,7.86l-32.16,149.72
			C752.15,761.57,751.66,761.96,751.08,761.96z M550.72,759.6H750.1l31.96-148.78c0.45-2.09-0.08-4.23-1.46-5.89
			c-1.38-1.65-3.42-2.6-5.61-2.6H590.37c-3.4,0-6.37,2.36-7.07,5.6L550.72,759.6z"/>
	</g>
	<g>
		<polygon class="st1" points="540.35,747.32 537.46,760.78 510.13,760.78 527.5,747.32 		"/>
		<path class="st1" d="M537.46,761.96h-27.33c-0.51,0-0.97-0.32-1.14-0.79c-0.17-0.47-0.01-1,0.39-1.31l17.37-13.46
			c0.21-0.17,0.48-0.26,0.75-0.26h12.85c0.36,0,0.71,0.16,0.94,0.44c0.23,0.28,0.32,0.64,0.25,0.99l-2.89,13.46
			C538.53,761.57,538.03,761.96,537.46,761.96z M513.59,759.6h22.88l2.39-11.1h-10.94L513.59,759.6z"/>
	</g>
	<g>
		<ellipse class="st1" cx="670.14" cy="680.46" rx="15.57" ry="15.2"/>
		<path class="st1" d="M670.14,696.83c-9.25,0-16.78-7.35-16.78-16.38c0-9.03,7.53-16.38,16.78-16.38c9.25,0,16.78,7.35,16.78,16.38
			C686.92,689.49,679.39,696.83,670.14,696.83z M670.14,666.44c-7.92,0-14.36,6.29-14.36,14.01c0,7.73,6.44,14.01,14.36,14.01
			s14.36-6.29,14.36-14.01C684.5,672.73,678.06,666.44,670.14,666.44z"/>
	</g>
	<g>
		<path class="st1" d="M671.81,665.26c0,0,3.41-24.77,10.9-21.69C690.21,646.65,671.81,665.26,671.81,665.26z"/>
		<path class="st1" d="M671.81,666.44c-0.18,0-0.36-0.04-0.53-0.12c-0.47-0.22-0.74-0.71-0.67-1.22c0.27-1.95,2.79-19.12,8.65-22.39
			c1.24-0.69,2.6-0.77,3.92-0.23c1.32,0.54,2.16,1.52,2.44,2.82c1.3,6.16-11.48,19.3-12.94,20.78
			C672.45,666.32,672.13,666.44,671.81,666.44z M681.44,644.48c-0.33,0-0.65,0.09-0.98,0.28c-3.27,1.82-5.63,10.74-6.8,16.79
			c4.82-5.37,10.25-12.66,9.59-15.77c-0.11-0.54-0.42-0.88-1-1.12C681.96,644.54,681.7,644.48,681.44,644.48z"/>
	</g>
</g>
<g>
	<path class="st2" d="M528.96,354.25c0,0-54.94-8.67-67.23,62.28h-17.19c0,0,2.03-63.22,54.4-71.93
		C498.93,344.6,519.04,341.2,528.96,354.25z"/>
	<path class="st1" d="M461.72,417.71h-17.19c-0.33,0-0.64-0.13-0.87-0.36c-0.23-0.23-0.35-0.54-0.34-0.86
		c0.01-0.16,0.6-16.21,7.65-33.11c4.16-9.96,9.72-18.28,16.52-24.72c8.53-8.08,19.04-13.2,31.23-15.23
		c0.85-0.14,20.95-3.37,31.2,10.11c0.29,0.39,0.32,0.91,0.06,1.32c-0.26,0.41-0.74,0.63-1.23,0.55c-0.19-0.03-13.68-2.02-28.43,4.49
		c-19.54,8.62-32.47,28.27-37.42,56.82C462.82,417.3,462.32,417.71,461.72,417.71z M445.81,415.35h14.89
		c2.88-15.93,8.17-29.1,15.73-39.18c6.21-8.28,13.95-14.49,23.01-18.46c11.3-4.96,21.68-5.18,26.64-4.91
		c-9.83-9.77-26.78-7.06-26.96-7.03c-21.26,3.53-36.7,16.47-45.9,38.45C447.44,398.07,446.1,411.35,445.81,415.35z"/>
</g>
<g>
	<ellipse class="st0" cx="446.05" cy="418.42" rx="16.17" ry="22.53"/>
</g>
<g>
	<path class="st1" d="M442.43,444.25c-0.67,0-1.21-0.53-1.21-1.18c0-0.65,0.54-1.18,1.21-1.18c5.88,0,10.84-9.78,10.84-21.35
		c0-11.57-4.96-21.35-10.84-21.35c-0.67,0-1.21-0.53-1.21-1.18s0.54-1.18,1.21-1.18c7.44,0,13.26,10.41,13.26,23.71
		C455.69,433.84,449.86,444.25,442.43,444.25z"/>
</g>
<g>
	<path class="st1" d="M508.34,496.8c-0.57,0-1.08-0.39-1.19-0.96l-2.59-13.26c-0.13-0.64,0.31-1.26,0.96-1.38
		c0.66-0.12,1.29,0.3,1.41,0.94l2.59,13.26c0.13,0.64-0.31,1.26-0.96,1.38C508.49,496.79,508.41,496.8,508.34,496.8z"/>
</g>
<g>
	<path class="st1" d="M556.1,408.15c-0.01,0-0.01,0-0.02,0c-0.67-0.01-1.2-0.55-1.19-1.2c0.22-14.61-3.72-26.61-11.4-34.69
		c-5.8-6.1-11.75-7.88-11.81-7.9c-0.64-0.19-1-0.84-0.81-1.47c0.19-0.62,0.86-0.98,1.5-0.8c0.26,0.08,6.55,1.94,12.79,8.45
		c5.71,5.96,12.45,17.11,12.15,36.44C557.3,407.63,556.76,408.15,556.1,408.15z"/>
</g>
<g>
	<path class="st1" d="M446.05,570.46c-0.16,0-0.32-0.03-0.47-0.09c-0.39-0.16-0.66-0.5-0.72-0.91l-8.66-55.6
		c-0.1-0.64,0.35-1.25,1.01-1.34c0.66-0.1,1.28,0.35,1.38,0.99l8.36,53.71l32.11-22.25c0.43-0.3,1.01-0.29,1.43,0.02l27.09,19.87
		l12.58-53.68c0.15-0.64,0.8-1.03,1.45-0.89c0.65,0.15,1.06,0.78,0.91,1.41l-12.99,55.45c-0.09,0.39-0.38,0.71-0.76,0.85
		c-0.39,0.14-0.82,0.07-1.14-0.17l-27.87-20.45l-32.99,22.86C446.54,570.38,446.3,570.46,446.05,570.46z"/>
</g>
<g>
	<path class="st1" d="M361.7,692.26c-0.58,0-1.09-0.41-1.19-0.99c-0.11-0.64,0.34-1.25,1-1.36l60.63-9.82
		c0.66-0.11,1.28,0.33,1.39,0.97c0.11,0.64-0.34,1.25-1,1.36l-60.63,9.82C361.83,692.25,361.77,692.26,361.7,692.26z"/>
</g>
<g>
	<g>
		<path class="st2" d="M534.4,694.11l-26.85-4.51l4.53-15.08c0,0,20.34,6.89,25.99,13.24c1.49,1.68,1.24,4.23-0.56,5.6l0,0
			C536.63,694.02,535.5,694.3,534.4,694.11z"/>
		<path class="st1" d="M535.07,695.35c-0.29,0-0.58-0.02-0.88-0.07l-26.85-4.51c-0.34-0.06-0.64-0.25-0.82-0.54
			c-0.18-0.29-0.23-0.63-0.13-0.96l4.53-15.08c0.09-0.31,0.31-0.57,0.61-0.72c0.29-0.15,0.64-0.17,0.95-0.07
			c0.84,0.29,20.71,7.07,26.51,13.58c0.94,1.06,1.38,2.41,1.24,3.8c-0.14,1.4-0.84,2.64-1.98,3.5
			C537.34,694.98,536.21,695.35,535.07,695.35z M509.09,688.66l25.51,4.29h0c0.76,0.13,1.55-0.06,2.16-0.53
			c0.61-0.46,0.98-1.12,1.05-1.87c0.07-0.74-0.16-1.46-0.66-2.02c-4.61-5.17-19.88-10.9-24.28-12.47L509.09,688.66z"/>
	</g>
	<g>
		<g>
			<path class="st2" d="M509.74,680.34l-8.37,35.38c0,0-10.12,4.94-12.8-12.05l-5.01,10.47c0,0-9.75,5.97-10.66-9.16L467.09,716
				c0,0-10.1,6.27-11.64-10.84l-3.75,8.95c0,0-12.88,0.67-9.33-15.7c-14.77,6.56-29.09-16.06-29.09-16.06l39.24-24.07
				c0,0,8.26-4.62,12.54,1.67c2-6.76,16.25-6.32,16.92,1.44c2.62-4.65,16.97-6.82,18.19,1.95
				C500.18,663.34,516.15,659.84,509.74,680.34z"/>
			<path class="st1" d="M463.07,718.31c-0.96,0-1.99-0.18-3.01-0.67c-2.48-1.2-4.21-3.89-5.16-8.04l-2.08,4.97
				c-0.18,0.42-0.59,0.71-1.06,0.73c-0.21,0.01-5.28,0.23-8.57-3.53c-2.33-2.65-3.12-6.53-2.38-11.53
				c-5.99,1.68-12.63-0.54-19.34-6.52c-5.49-4.89-9.07-10.51-9.22-10.74c-0.35-0.55-0.18-1.27,0.39-1.62l39.24-24.07
				c0.01-0.01,0.03-0.02,0.04-0.02c2.87-1.6,8.85-3.28,12.86,0.51c2.01-2.97,6.24-4.02,9.81-3.68c3.85,0.37,6.77,2.21,8,4.88
				c2.74-2.15,7.59-3.34,11.68-2.6c3.57,0.64,6.01,2.67,6.87,5.64c2.03-0.2,6.15-0.2,8.87,2.66c2.94,3.09,3.24,8.47,0.9,15.97
				l-8.36,35.34c-0.08,0.34-0.31,0.63-0.64,0.79c-0.15,0.07-3.79,1.81-7.57-0.1c-2.89-1.46-4.97-4.57-6.22-9.27l-3.46,7.23
				c-0.1,0.21-0.26,0.38-0.45,0.5c-0.17,0.1-4.1,2.47-7.67,0.67c-2.16-1.08-3.61-3.4-4.35-6.9l-4.03,7.64
				c-0.1,0.19-0.25,0.34-0.43,0.46C467.62,717.07,465.59,718.31,463.07,718.31z M455.45,703.99c0.06,0,0.12,0,0.18,0.01
				c0.55,0.08,0.98,0.52,1.02,1.06c0.51,5.66,2.05,9.28,4.46,10.45c2.03,0.99,4.3,0.02,5.06-0.36l5.65-10.71
				c0.25-0.47,0.79-0.73,1.33-0.61c0.53,0.11,0.93,0.55,0.96,1.09c0.28,4.73,1.5,7.77,3.52,8.8c1.9,0.96,4.2-0.01,5-0.41l4.84-10.13
				c0.23-0.47,0.74-0.74,1.27-0.67c0.53,0.07,0.94,0.47,1.02,0.99c0.92,5.83,2.88,9.66,5.66,11.08c2.02,1.03,4.01,0.59,4.91,0.29
				l8.22-34.78c0.01-0.03,0.01-0.05,0.02-0.08c2.05-6.56,1.94-11.3-0.34-13.71c-2.69-2.85-7.74-1.8-7.79-1.79
				c-0.33,0.07-0.68,0-0.95-0.18c-0.28-0.19-0.46-0.48-0.51-0.81c-0.46-3.29-3.06-4.43-5.16-4.81c-4.49-0.81-9.57,1.12-10.77,3.27
				c-0.26,0.46-0.79,0.7-1.31,0.59c-0.52-0.11-0.91-0.54-0.95-1.05c-0.29-3.3-3.51-4.77-6.43-5.05c-3.37-0.32-7.25,0.89-8.12,3.84
				c-0.13,0.44-0.51,0.77-0.98,0.84c-0.47,0.07-0.93-0.13-1.19-0.51c-3.54-5.2-10.41-1.59-10.91-1.31l-38.17,23.41
				c2.91,4.16,14.97,19.93,26.9,14.63c0.42-0.18,0.9-0.12,1.26,0.15c0.36,0.28,0.52,0.73,0.43,1.17c-1.14,5.25-0.65,9.14,1.46,11.56
				c1.86,2.13,4.58,2.6,5.88,2.7l3.43-8.19C454.52,704.27,454.96,703.99,455.45,703.99z M501.37,715.72L501.37,715.72L501.37,715.72
				z"/>
		</g>
		<g>
			<path class="st1" d="M488.57,704.85c-0.11,0-0.22-0.01-0.33-0.04c-0.64-0.17-1.02-0.83-0.84-1.45l11.42-40.02
				c0.18-0.63,0.85-0.99,1.49-0.82c0.64,0.17,1.02,0.83,0.84,1.45l-11.42,40.02C489.59,704.5,489.1,704.85,488.57,704.85z"/>
		</g>
		<g>
			<path class="st1" d="M472.91,706.15c-0.08,0-0.16-0.01-0.25-0.03c-0.65-0.13-1.07-0.76-0.94-1.4l9.15-43.09
				c0.14-0.64,0.78-1.05,1.43-0.92c0.65,0.13,1.07,0.76,0.94,1.4l-9.15,43.09C473.97,705.77,473.47,706.15,472.91,706.15z"/>
		</g>
		<g>
			<path class="st1" d="M455.45,706.35c-0.08,0-0.16-0.01-0.25-0.03c-0.65-0.13-1.07-0.76-0.94-1.4l9.62-45.21
				c0.14-0.64,0.78-1.05,1.43-0.92c0.65,0.13,1.07,0.76,0.94,1.4l-9.62,45.21C456.52,705.96,456.01,706.35,455.45,706.35z"/>
		</g>
	</g>
	<g>
		<path class="st1" d="M442.31,697.68c-0.1,0-0.2-0.01-0.31-0.04c-0.65-0.16-1.03-0.81-0.87-1.44l5.66-21.27
			c0.17-0.63,0.83-1.01,1.48-0.85c0.65,0.16,1.03,0.81,0.87,1.44l-5.67,21.27C443.34,697.33,442.84,697.68,442.31,697.68z"/>
	</g>
</g>
<g>
	<path class="st1" d="M406.11,685.52c-0.64,0-1.17-0.49-1.21-1.12c-0.02-0.27-1.52-27.11-3.91-54.13
		c-1.4-15.86-2.82-28.67-4.23-38.08c-2.19-14.64-3.87-17.65-4.45-18.27c-0.47,0.49-1.64,2.71-1.3,12.65
		c0.23,6.76,1.11,15.97,2.62,27.36c2.58,19.44,6.15,38.73,6.18,38.92c0.12,0.64-0.32,1.26-0.98,1.37c-0.66,0.12-1.29-0.31-1.41-0.95
		c-0.04-0.19-3.61-19.55-6.2-39.04c-1.52-11.47-2.41-20.75-2.64-27.59c-0.41-12,1.26-14.33,2.95-15.03c0.63-0.26,1.3-0.2,1.9,0.16
		c1.39,0.85,5.1,3.1,9.97,58.35c2.39,27.04,3.89,53.88,3.91,54.14c0.04,0.65-0.47,1.21-1.14,1.24
		C406.16,685.52,406.14,685.52,406.11,685.52z"/>
</g>
<g>
	<path class="st1" d="M385.63,675.23c0.87,0.58,9.38,10.44,9.38,10.44s-11.78,1.91-10.91,0.49
		C384.98,684.74,385.63,675.23,385.63,675.23z"/>
	<path class="st1" d="M385.95,687.87c-2.3,0-2.62-0.46-2.85-0.8c-0.31-0.45-0.32-1.03-0.03-1.51c0.45-0.81,1.06-6.03,1.36-10.4
		c0.03-0.42,0.29-0.8,0.68-0.98c0.39-0.19,0.85-0.15,1.21,0.08c0.91,0.6,7.04,7.66,9.63,10.66c0.28,0.32,0.36,0.77,0.21,1.17
		c-0.15,0.4-0.51,0.69-0.94,0.76C390.49,687.61,387.67,687.87,385.95,687.87z M385.59,685.52c0.02,0,0.04,0,0.06,0
		c1.47,0,4.27-0.29,7.05-0.69c-2.26-2.61-4.55-5.2-6.07-6.87C386.42,680.42,386.07,683.65,385.59,685.52z"/>
</g>
<g>
	<path class="st1" d="M557.74,667.54c-0.54,0-1.01-0.35-1.16-0.85c-0.05-0.17-5.19-17.46-9.13-35.08
		c-7.3-32.69-4.34-38.34-1.48-39.75c1.11-0.54,2.28-0.42,3.3,0.34c3.63,2.72,6.46,15.4,8.4,37.69c1.42,16.33,1.88,33.84,1.26,36.72
		c-0.11,0.53-0.58,0.92-1.14,0.94C557.78,667.54,557.76,667.54,557.74,667.54z M547.36,593.88c-0.1,0-0.19,0.03-0.29,0.08
		c-1.17,0.58-4.43,4.96,2.76,37.14c2.33,10.45,5.09,20.77,6.95,27.45c-0.09-6.93-0.57-17.59-1.51-28.47
		c-1.77-20.38-4.56-33.85-7.46-36.02C547.62,593.93,547.48,593.88,547.36,593.88z"/>
</g>
<g>
	<path class="st1" d="M545.91,573.82c-0.65,0-1.19-0.51-1.21-1.15c-0.62-20.63,9.94-28.86,10.39-29.2c0.53-0.4,1.29-0.31,1.7,0.21
		c0.41,0.51,0.31,1.25-0.21,1.65l0,0c-0.1,0.08-10.04,7.93-9.46,27.27c0.02,0.65-0.51,1.2-1.17,1.21
		C545.93,573.82,545.92,573.82,545.91,573.82z"/>
</g>
<g>
	<path class="st1" d="M392.01,553.24c-0.49,0-0.94-0.29-1.13-0.75c-2.54-6.4-5.68-12.16-6.89-12.64c-0.64-0.03-1.14-0.55-1.14-1.18
		c0-0.65,0.54-1.18,1.21-1.18c1.25,0,2.85,0.89,6.06,7.36c1.66,3.35,2.97,6.65,3.02,6.78c0.24,0.61-0.07,1.29-0.69,1.53
		C392.31,553.21,392.16,553.24,392.01,553.24z M384.06,539.84C384.06,539.84,384.06,539.84,384.06,539.84
		C384.06,539.84,384.06,539.84,384.06,539.84z M383.97,539.83L383.97,539.83L383.97,539.83z"/>
</g>
<g>
	<path class="st1" d="M413.01,748.5c-0.4,0-0.79-0.19-1.02-0.55c-0.36-0.55-0.19-1.28,0.38-1.63l34.96-21.55
		c0.56-0.35,1.31-0.18,1.67,0.37c0.36,0.55,0.19,1.28-0.38,1.63l-34.96,21.55C413.46,748.44,413.24,748.5,413.01,748.5z"/>
</g>
<g>
	<path class="st1" d="M479.36,602.33C479.36,602.33,479.36,602.33,479.36,602.33c-0.68,0-1.21-0.54-1.21-1.19l0.4-55.23
		c0-0.65,0.55-1.17,1.21-1.17c0,0,0.01,0,0.01,0c0.67,0,1.21,0.54,1.2,1.19l-0.4,55.23C480.57,601.8,480.03,602.33,479.36,602.33z"
		/>
</g>
<g>
	<path class="st1" d="M575.8,482.53c-0.08,0-0.16-0.01-0.24-0.02c-5.7-1.11-11.25-2.9-16.51-5.31c-1.21-0.55-2.45-1.19-3.29-2.35
		c-0.97-1.35-1.19-3.2-0.67-5.49c0.93-4.05,3.32-7.79,6.78-10.79c-0.8-0.48-1.55-1.06-2.19-1.79c-1.86-2.14-2.42-5.36-1.45-8.4
		c0.75-2.36,2.3-4.58,4.76-6.79c6.48-5.83,14.74-7.92,20.53-8.65c7.56-0.95,15.15-0.23,22.22,0.69c0.66,0.09,1.13,0.68,1.04,1.33
		c-0.09,0.65-0.7,1.1-1.36,1.01c-6.9-0.9-14.3-1.6-21.59-0.69c-5.44,0.68-13.19,2.63-19.2,8.04c-2.13,1.92-3.47,3.8-4.09,5.76
		c-0.71,2.25-0.32,4.67,0.99,6.18c0.63,0.73,1.47,1.27,2.37,1.73c1.81-1.28,3.85-2.38,6.06-3.26c6.96-2.76,14.53-3.09,21.69-3.05
		c1.43,0.01,3.4,0.02,5.11,0.87c1.76,0.87,3.26,2.88,2.72,5.03c-0.53,2.11-2.67,3.12-4.23,3.7c-9.83,3.64-21.04,3.48-30.76-0.44
		c-0.08-0.03-0.16-0.06-0.24-0.1c-3.49,2.8-5.93,6.36-6.8,10.14c-0.37,1.62-0.27,2.84,0.29,3.63c0.49,0.69,1.38,1.13,2.33,1.57
		c5.08,2.33,10.45,4.05,15.96,5.13c0.66,0.13,1.08,0.75,0.95,1.39C576.87,482.14,576.37,482.53,575.8,482.53z M566.57,458.08
		c8.88,3.26,18.95,3.26,27.83-0.03c1.67-0.62,2.54-1.27,2.74-2.06c0.23-0.91-0.57-1.91-1.47-2.36c-1.11-0.55-2.48-0.6-4.03-0.61
		c-6.91-0.05-14.19,0.27-20.76,2.87C569.35,456.5,567.9,457.24,566.57,458.08z"/>
</g>
<g>
	<path class="st1" d="M570.81,492.53c-3.96,0-7.86-0.66-11.6-1.97c-0.63-0.22-0.96-0.9-0.73-1.51c0.23-0.61,0.92-0.93,1.55-0.71
		c3.65,1.28,7.46,1.89,11.34,1.82c0.01,0,0.01,0,0.02,0c0.66,0,1.2,0.52,1.21,1.16c0.01,0.65-0.52,1.19-1.19,1.2
		C571.21,492.53,571.01,492.53,570.81,492.53z"/>
</g>
<g>
	<path class="st1" d="M896.79,761.96H338.05c-0.67,0-1.21-0.53-1.21-1.18s0.54-1.18,1.21-1.18h558.74c0.67,0,1.21,0.53,1.21,1.18
		S897.46,761.96,896.79,761.96z"/>
</g>
<path class="st5" d="M730.36,545.49c0,15.8-13.13,28.61-29.31,28.61c-16.19,0-29.32-12.81-29.32-28.61
	c0-15.8,13.13-28.61,29.32-28.61C717.23,516.87,730.36,529.68,730.36,545.49z"/>
<polygon class="st6" points="701.05,549.64 689.02,540.99 701.05,523.08 713.07,540.99 "/>
<polygon class="st6" points="701.05,564.72 689.02,546.51 701.05,555.75 713.07,546.51 "/>
<path class="st7" d="M682.12,501.63l0.48,0.12l-0.48,0.12c-2.78,0.68-4.95,2.8-5.65,5.52l-0.12,0.46l-0.12-0.46
	c-0.7-2.72-2.87-4.84-5.65-5.52l-0.47-0.12l0.47-0.12c2.78-0.68,4.96-2.8,5.65-5.52l0.12-0.46l0.12,0.46
	C677.16,498.83,679.33,500.95,682.12,501.63L682.12,501.63z"/>
<path class="st7" d="M741.82,585.27l0.47,0.12l-0.47,0.12c-2.78,0.68-4.95,2.8-5.65,5.52l-0.12,0.46l-0.12-0.46
	c-0.7-2.72-2.87-4.84-5.65-5.52l-0.47-0.12l0.47-0.12c2.78-0.68,4.95-2.8,5.65-5.52l0.12-0.46l0.12,0.46
	C736.86,582.47,739.04,584.59,741.82,585.27L741.82,585.27z"/>
<path class="st7" d="M700.77,495.44l0.28,0.07l-0.28,0.07c-1.63,0.4-2.9,1.64-3.31,3.23l-0.07,0.27l-0.07-0.27
	c-0.41-1.59-1.68-2.83-3.31-3.23l-0.28-0.07l0.28-0.07c1.63-0.4,2.9-1.64,3.31-3.23l0.07-0.27l0.07,0.27
	C697.87,493.8,699.14,495.04,700.77,495.44L700.77,495.44z"/>
</svg>
